<svg width="311" height="53" viewBox="0 0 311 53" fill="none" xmlns="http://www.w3.org/2000/svg">
<mask id="path-1-outside-1_4_590" maskUnits="userSpaceOnUse" x="-2" y="-1" width="314" height="56" fill="black">
<rect fill="white" x="-2" y="-1" width="314" height="56"/>
<path d="M12.3669 42H2.19087V7.504L0.622875 4.496H12.3989L18.2869 16.656L23.9189 28.784L22.3509 14.544V4.496H32.5589V42H22.7989L15.1829 27.184L10.4789 17.904L12.3669 30.192V42Z"/>
<path d="M52.8784 37.744C52.7504 38.0427 52.4837 38.4373 52.0784 38.928C51.6944 39.4187 51.1824 39.9627 50.5424 40.56C49.9024 41.136 49.113 41.6267 48.1744 42.032C47.2357 42.4587 46.2864 42.672 45.3264 42.672C42.3184 42.672 40.1637 41.776 38.8624 39.984C37.5824 38.192 36.9424 35.2053 36.9424 31.024V19.632L35.8224 18.48V14.8H47.4384V33.04C47.417 34 47.577 34.7147 47.9184 35.184C48.2597 35.632 48.8784 35.856 49.7744 35.856C49.9024 35.856 50.0197 35.856 50.1264 35.856C50.233 35.8347 50.3397 35.8133 50.4464 35.792C50.553 35.7493 50.6384 35.7173 50.7024 35.696C50.7877 35.6747 50.8837 35.6427 50.9904 35.6C51.097 35.536 51.1824 35.4827 51.2464 35.44C51.3104 35.3973 51.3957 35.344 51.5024 35.28C51.609 35.1947 51.6837 35.1307 51.7264 35.088C51.7904 35.0453 51.8757 34.9813 51.9824 34.896C52.1104 34.7893 52.2064 34.7147 52.2704 34.672V19.632L50.5424 18.48V14.8H62.7344V42H53.8704L52.8784 37.744ZM74.6246 42.672C71.7446 42.672 69.7286 41.808 68.5766 40.08C67.446 38.352 66.8806 35.4293 66.8806 31.312V20.432H64.6726V15.984L68.4486 14.8L71.7126 7.344H77.3446V14.8H82.5926V20.432H77.2486V32.336C77.2486 34.0427 77.494 35.1733 77.9846 35.728C78.4753 36.2827 79.2326 36.56 80.2566 36.56C80.7046 36.56 81.11 36.5067 81.4726 36.4C81.8353 36.2933 82.134 36.144 82.3686 35.952V40.304C82.0486 40.624 81.6326 40.944 81.1206 41.264C80.6086 41.5627 79.7553 41.872 78.5606 42.192C77.3873 42.512 76.0753 42.672 74.6246 42.672ZM95.7539 42H85.4179V21.296L83.4979 20.112V16.496L90.3779 14.8H92.9699L93.8979 22.416C94.7725 17.1893 97.5779 14.576 102.314 14.576C102.847 14.576 103.402 14.672 103.978 14.864L102.89 26.256C102.442 25.8507 101.461 25.648 99.9459 25.648C97.7699 25.648 96.3725 26.224 95.7539 27.376V42ZM106.512 42V21.296L104.592 20.112V16.688L111.472 14.8H116.816V42H106.512ZM111.152 11.856L105.904 6.576V5.456L111.152 0.207999H112.368L117.84 5.456V6.576L112.368 11.856H111.152ZM133.518 36.752C135.14 36.752 136.377 35.7493 137.23 33.744C138.105 31.7387 138.542 28.432 138.542 23.824V20.592C138.542 17.2213 138.137 14.6187 137.326 12.784C136.516 10.9493 135.364 10.032 133.87 10.032H131.47V36.752H133.518ZM134.51 42.224C133.742 42.224 132.548 42.1813 130.926 42.096C129.326 42.032 127.673 42 125.966 42H120.878V4.496H125.966C127.396 4.47467 128.953 4.42133 130.638 4.336C132.324 4.25067 133.646 4.208 134.606 4.208C140.046 4.208 143.94 5.73333 146.286 8.784C148.654 11.8347 149.838 16.2827 149.838 22.128C149.838 24.112 149.7 26 149.422 27.792C149.166 29.584 148.676 31.3867 147.95 33.2C147.225 34.992 146.308 36.5387 145.198 37.84C144.089 39.1413 142.617 40.1973 140.782 41.008C138.948 41.8187 136.857 42.224 134.51 42.224ZM167.567 25.456C167.567 22.7467 167.428 20.8267 167.151 19.696C166.874 18.5653 166.362 18 165.615 18C164.975 18 164.452 18.1173 164.047 18.352C163.642 18.5653 163.343 18.9173 163.151 19.408C162.959 19.8773 162.831 20.368 162.767 20.88C162.724 21.3707 162.703 22 162.703 22.768V25.456H167.567ZM165.007 42.672C162.618 42.672 160.538 42.3093 158.767 41.584C157.018 40.8587 155.631 39.8453 154.607 38.544C153.604 37.2427 152.868 35.7813 152.399 34.16C151.93 32.5173 151.695 30.6933 151.695 28.688C151.695 23.9093 152.911 20.2933 155.343 17.84C157.775 15.3867 161.178 14.16 165.551 14.16C169.754 14.16 172.762 15.152 174.575 17.136C176.388 19.0987 177.295 22.2667 177.295 26.64V30.192H162.671V30.8C162.671 32.0587 162.799 33.0933 163.055 33.904C163.332 34.7147 163.727 35.312 164.239 35.696C164.751 36.08 165.274 36.336 165.807 36.464C166.34 36.592 166.991 36.656 167.759 36.656C168.506 36.656 169.306 36.56 170.159 36.368C171.034 36.176 171.908 35.8773 172.783 35.472C173.679 35.0667 174.426 34.5867 175.023 34.032L176.911 37.264C176.122 38.544 174.959 39.6213 173.423 40.496C171.908 41.3493 170.447 41.9253 169.039 42.224C167.631 42.5227 166.287 42.672 165.007 42.672ZM180.41 42V5.808L178.49 4.656V1.68L188.762 0.0799999H190.842V42H180.41ZM195.105 42V21.296L193.185 20.112V16.688L200.065 14.8H205.409V42H195.105ZM199.745 11.856L194.497 6.576V5.456L199.745 0.207999H200.961L206.433 5.456V6.576L200.961 11.856H199.745ZM216.032 42L206.624 14.8H218.112L220.16 24.624L221.632 33.104L223.264 24.624L225.632 14.8H234.272L226.112 42H216.032ZM250.442 25.456C250.442 22.7467 250.303 20.8267 250.026 19.696C249.749 18.5653 249.237 18 248.49 18C247.85 18 247.327 18.1173 246.922 18.352C246.517 18.5653 246.218 18.9173 246.026 19.408C245.834 19.8773 245.706 20.368 245.642 20.88C245.599 21.3707 245.578 22 245.578 22.768V25.456H250.442ZM247.882 42.672C245.493 42.672 243.413 42.3093 241.642 41.584C239.893 40.8587 238.506 39.8453 237.482 38.544C236.479 37.2427 235.743 35.7813 235.274 34.16C234.805 32.5173 234.57 30.6933 234.57 28.688C234.57 23.9093 235.786 20.2933 238.218 17.84C240.65 15.3867 244.053 14.16 248.426 14.16C252.629 14.16 255.637 15.152 257.45 17.136C259.263 19.0987 260.17 22.2667 260.17 26.64V30.192H245.546V30.8C245.546 32.0587 245.674 33.0933 245.93 33.904C246.207 34.7147 246.602 35.312 247.114 35.696C247.626 36.08 248.149 36.336 248.682 36.464C249.215 36.592 249.866 36.656 250.634 36.656C251.381 36.656 252.181 36.56 253.034 36.368C253.909 36.176 254.783 35.8773 255.658 35.472C256.554 35.0667 257.301 34.5867 257.898 34.032L259.786 37.264C258.997 38.544 257.834 39.6213 256.298 40.496C254.783 41.3493 253.322 41.9253 251.914 42.224C250.506 42.5227 249.162 42.672 247.882 42.672ZM273.973 42H263.637V21.296L261.717 20.112V16.496L268.597 14.8H271.189L272.117 22.416C272.991 17.1893 275.797 14.576 280.533 14.576C281.066 14.576 281.621 14.672 282.197 14.864L281.109 26.256C280.661 25.8507 279.679 25.648 278.165 25.648C275.989 25.648 274.591 26.224 273.973 27.376V42ZM297.85 53.008C295.653 53.008 293.584 52.688 291.642 52.048C289.701 51.408 288.282 50.544 287.386 49.456L289.05 46C290.288 46.704 292.25 47.056 294.938 47.056C295.792 47.056 296.528 46.96 297.146 46.768C297.765 46.576 298.32 46.2347 298.81 45.744C299.301 45.2747 299.674 44.6027 299.93 43.728C300.186 42.8533 300.325 41.776 300.346 40.496V37.744L300.026 38.256C299.813 38.5973 299.482 39.0133 299.034 39.504C298.608 39.9733 298.117 40.4533 297.562 40.944C297.008 41.4133 296.325 41.8187 295.514 42.16C294.725 42.5013 293.914 42.672 293.082 42.672C289.904 42.672 287.664 41.7867 286.362 40.016C285.061 38.224 284.41 35.216 284.41 30.992V19.632L283.258 18.48V14.8H294.906V33.008C294.906 33.9893 295.056 34.7147 295.354 35.184C295.674 35.632 296.304 35.856 297.242 35.856C297.52 35.856 297.797 35.8133 298.074 35.728C298.352 35.6213 298.618 35.4827 298.874 35.312C299.152 35.1413 299.44 34.928 299.738 34.672V19.632L297.978 18.48V14.8H310.17V38.256C310.17 42.9707 309.168 46.608 307.162 49.168C305.157 51.728 302.053 53.008 297.85 53.008Z"/>
</mask>
<path d="M12.3669 42H2.19087V7.504L0.622875 4.496H12.3989L18.2869 16.656L23.9189 28.784L22.3509 14.544V4.496H32.5589V42H22.7989L15.1829 27.184L10.4789 17.904L12.3669 30.192V42Z" fill="#00FE19"/>
<path d="M52.8784 37.744C52.7504 38.0427 52.4837 38.4373 52.0784 38.928C51.6944 39.4187 51.1824 39.9627 50.5424 40.56C49.9024 41.136 49.113 41.6267 48.1744 42.032C47.2357 42.4587 46.2864 42.672 45.3264 42.672C42.3184 42.672 40.1637 41.776 38.8624 39.984C37.5824 38.192 36.9424 35.2053 36.9424 31.024V19.632L35.8224 18.48V14.8H47.4384V33.04C47.417 34 47.577 34.7147 47.9184 35.184C48.2597 35.632 48.8784 35.856 49.7744 35.856C49.9024 35.856 50.0197 35.856 50.1264 35.856C50.233 35.8347 50.3397 35.8133 50.4464 35.792C50.553 35.7493 50.6384 35.7173 50.7024 35.696C50.7877 35.6747 50.8837 35.6427 50.9904 35.6C51.097 35.536 51.1824 35.4827 51.2464 35.44C51.3104 35.3973 51.3957 35.344 51.5024 35.28C51.609 35.1947 51.6837 35.1307 51.7264 35.088C51.7904 35.0453 51.8757 34.9813 51.9824 34.896C52.1104 34.7893 52.2064 34.7147 52.2704 34.672V19.632L50.5424 18.48V14.8H62.7344V42H53.8704L52.8784 37.744ZM74.6246 42.672C71.7446 42.672 69.7286 41.808 68.5766 40.08C67.446 38.352 66.8806 35.4293 66.8806 31.312V20.432H64.6726V15.984L68.4486 14.8L71.7126 7.344H77.3446V14.8H82.5926V20.432H77.2486V32.336C77.2486 34.0427 77.494 35.1733 77.9846 35.728C78.4753 36.2827 79.2326 36.56 80.2566 36.56C80.7046 36.56 81.11 36.5067 81.4726 36.4C81.8353 36.2933 82.134 36.144 82.3686 35.952V40.304C82.0486 40.624 81.6326 40.944 81.1206 41.264C80.6086 41.5627 79.7553 41.872 78.5606 42.192C77.3873 42.512 76.0753 42.672 74.6246 42.672ZM95.7539 42H85.4179V21.296L83.4979 20.112V16.496L90.3779 14.8H92.9699L93.8979 22.416C94.7725 17.1893 97.5779 14.576 102.314 14.576C102.847 14.576 103.402 14.672 103.978 14.864L102.89 26.256C102.442 25.8507 101.461 25.648 99.9459 25.648C97.7699 25.648 96.3725 26.224 95.7539 27.376V42ZM106.512 42V21.296L104.592 20.112V16.688L111.472 14.8H116.816V42H106.512ZM111.152 11.856L105.904 6.576V5.456L111.152 0.207999H112.368L117.84 5.456V6.576L112.368 11.856H111.152ZM133.518 36.752C135.14 36.752 136.377 35.7493 137.23 33.744C138.105 31.7387 138.542 28.432 138.542 23.824V20.592C138.542 17.2213 138.137 14.6187 137.326 12.784C136.516 10.9493 135.364 10.032 133.87 10.032H131.47V36.752H133.518ZM134.51 42.224C133.742 42.224 132.548 42.1813 130.926 42.096C129.326 42.032 127.673 42 125.966 42H120.878V4.496H125.966C127.396 4.47467 128.953 4.42133 130.638 4.336C132.324 4.25067 133.646 4.208 134.606 4.208C140.046 4.208 143.94 5.73333 146.286 8.784C148.654 11.8347 149.838 16.2827 149.838 22.128C149.838 24.112 149.7 26 149.422 27.792C149.166 29.584 148.676 31.3867 147.95 33.2C147.225 34.992 146.308 36.5387 145.198 37.84C144.089 39.1413 142.617 40.1973 140.782 41.008C138.948 41.8187 136.857 42.224 134.51 42.224ZM167.567 25.456C167.567 22.7467 167.428 20.8267 167.151 19.696C166.874 18.5653 166.362 18 165.615 18C164.975 18 164.452 18.1173 164.047 18.352C163.642 18.5653 163.343 18.9173 163.151 19.408C162.959 19.8773 162.831 20.368 162.767 20.88C162.724 21.3707 162.703 22 162.703 22.768V25.456H167.567ZM165.007 42.672C162.618 42.672 160.538 42.3093 158.767 41.584C157.018 40.8587 155.631 39.8453 154.607 38.544C153.604 37.2427 152.868 35.7813 152.399 34.16C151.93 32.5173 151.695 30.6933 151.695 28.688C151.695 23.9093 152.911 20.2933 155.343 17.84C157.775 15.3867 161.178 14.16 165.551 14.16C169.754 14.16 172.762 15.152 174.575 17.136C176.388 19.0987 177.295 22.2667 177.295 26.64V30.192H162.671V30.8C162.671 32.0587 162.799 33.0933 163.055 33.904C163.332 34.7147 163.727 35.312 164.239 35.696C164.751 36.08 165.274 36.336 165.807 36.464C166.34 36.592 166.991 36.656 167.759 36.656C168.506 36.656 169.306 36.56 170.159 36.368C171.034 36.176 171.908 35.8773 172.783 35.472C173.679 35.0667 174.426 34.5867 175.023 34.032L176.911 37.264C176.122 38.544 174.959 39.6213 173.423 40.496C171.908 41.3493 170.447 41.9253 169.039 42.224C167.631 42.5227 166.287 42.672 165.007 42.672ZM180.41 42V5.808L178.49 4.656V1.68L188.762 0.0799999H190.842V42H180.41ZM195.105 42V21.296L193.185 20.112V16.688L200.065 14.8H205.409V42H195.105ZM199.745 11.856L194.497 6.576V5.456L199.745 0.207999H200.961L206.433 5.456V6.576L200.961 11.856H199.745ZM216.032 42L206.624 14.8H218.112L220.16 24.624L221.632 33.104L223.264 24.624L225.632 14.8H234.272L226.112 42H216.032ZM250.442 25.456C250.442 22.7467 250.303 20.8267 250.026 19.696C249.749 18.5653 249.237 18 248.49 18C247.85 18 247.327 18.1173 246.922 18.352C246.517 18.5653 246.218 18.9173 246.026 19.408C245.834 19.8773 245.706 20.368 245.642 20.88C245.599 21.3707 245.578 22 245.578 22.768V25.456H250.442ZM247.882 42.672C245.493 42.672 243.413 42.3093 241.642 41.584C239.893 40.8587 238.506 39.8453 237.482 38.544C236.479 37.2427 235.743 35.7813 235.274 34.16C234.805 32.5173 234.57 30.6933 234.57 28.688C234.57 23.9093 235.786 20.2933 238.218 17.84C240.65 15.3867 244.053 14.16 248.426 14.16C252.629 14.16 255.637 15.152 257.45 17.136C259.263 19.0987 260.17 22.2667 260.17 26.64V30.192H245.546V30.8C245.546 32.0587 245.674 33.0933 245.93 33.904C246.207 34.7147 246.602 35.312 247.114 35.696C247.626 36.08 248.149 36.336 248.682 36.464C249.215 36.592 249.866 36.656 250.634 36.656C251.381 36.656 252.181 36.56 253.034 36.368C253.909 36.176 254.783 35.8773 255.658 35.472C256.554 35.0667 257.301 34.5867 257.898 34.032L259.786 37.264C258.997 38.544 257.834 39.6213 256.298 40.496C254.783 41.3493 253.322 41.9253 251.914 42.224C250.506 42.5227 249.162 42.672 247.882 42.672ZM273.973 42H263.637V21.296L261.717 20.112V16.496L268.597 14.8H271.189L272.117 22.416C272.991 17.1893 275.797 14.576 280.533 14.576C281.066 14.576 281.621 14.672 282.197 14.864L281.109 26.256C280.661 25.8507 279.679 25.648 278.165 25.648C275.989 25.648 274.591 26.224 273.973 27.376V42ZM297.85 53.008C295.653 53.008 293.584 52.688 291.642 52.048C289.701 51.408 288.282 50.544 287.386 49.456L289.05 46C290.288 46.704 292.25 47.056 294.938 47.056C295.792 47.056 296.528 46.96 297.146 46.768C297.765 46.576 298.32 46.2347 298.81 45.744C299.301 45.2747 299.674 44.6027 299.93 43.728C300.186 42.8533 300.325 41.776 300.346 40.496V37.744L300.026 38.256C299.813 38.5973 299.482 39.0133 299.034 39.504C298.608 39.9733 298.117 40.4533 297.562 40.944C297.008 41.4133 296.325 41.8187 295.514 42.16C294.725 42.5013 293.914 42.672 293.082 42.672C289.904 42.672 287.664 41.7867 286.362 40.016C285.061 38.224 284.41 35.216 284.41 30.992V19.632L283.258 18.48V14.8H294.906V33.008C294.906 33.9893 295.056 34.7147 295.354 35.184C295.674 35.632 296.304 35.856 297.242 35.856C297.52 35.856 297.797 35.8133 298.074 35.728C298.352 35.6213 298.618 35.4827 298.874 35.312C299.152 35.1413 299.44 34.928 299.738 34.672V19.632L297.978 18.48V14.8H310.17V38.256C310.17 42.9707 309.168 46.608 307.162 49.168C305.157 51.728 302.053 53.008 297.85 53.008Z" fill="#FFFCFC"/>
<path d="M12.3669 42V43H13.3669V42H12.3669ZM2.19087 42H1.19087V43H2.19087V42ZM2.19087 7.504H3.19087V7.259L3.07763 7.04176L2.19087 7.504ZM0.622875 4.496V3.496H-1.02611L-0.263878 4.95824L0.622875 4.496ZM12.3989 4.496L13.2989 4.06019L13.0257 3.496H12.3989V4.496ZM18.2869 16.656L19.1939 16.2348L19.1904 16.2275L19.1869 16.2202L18.2869 16.656ZM23.9189 28.784L23.0119 29.2052L24.9129 28.6745L23.9189 28.784ZM22.3509 14.544H21.3509V14.5989L21.3569 14.6535L22.3509 14.544ZM22.3509 4.496V3.496H21.3509V4.496H22.3509ZM32.5589 4.496H33.5589V3.496H32.5589V4.496ZM32.5589 42V43H33.5589V42H32.5589ZM22.7989 42L21.9095 42.4572L22.1885 43H22.7989V42ZM15.1829 27.184L14.2909 27.6361L14.2935 27.6412L15.1829 27.184ZM10.4789 17.904L11.3708 17.4519L9.49047 18.0559L10.4789 17.904ZM12.3669 30.192H13.3669V30.1156L13.3553 30.0401L12.3669 30.192ZM12.3669 41H2.19087V43H12.3669V41ZM3.19087 42V7.504H1.19087V42H3.19087ZM3.07763 7.04176L1.50963 4.03376L-0.263878 4.95824L1.30412 7.96624L3.07763 7.04176ZM0.622875 5.496H12.3989V3.496H0.622875V5.496ZM11.4988 4.93181L17.3868 17.0918L19.1869 16.2202L13.2989 4.06019L11.4988 4.93181ZM17.3799 17.0772L23.0119 29.2052L24.8259 28.3628L19.1939 16.2348L17.3799 17.0772ZM24.9129 28.6745L23.3449 14.4346L21.3569 14.6535L22.9249 28.8935L24.9129 28.6745ZM23.3509 14.544V4.496H21.3509V14.544H23.3509ZM22.3509 5.496H32.5589V3.496H22.3509V5.496ZM31.5589 4.496V42H33.5589V4.496H31.5589ZM32.5589 41H22.7989V43H32.5589V41ZM23.6883 41.5428L16.0723 26.7268L14.2935 27.6412L21.9095 42.4572L23.6883 41.5428ZM16.0748 26.7319L11.3708 17.4519L9.58692 18.3561L14.2909 27.6361L16.0748 26.7319ZM9.49047 18.0559L11.3785 30.3439L13.3553 30.0401L11.4673 17.7521L9.49047 18.0559ZM11.3669 30.192V42H13.3669V30.192H11.3669ZM52.8784 37.744L53.8523 37.517L53.1602 34.5478L51.9592 37.3501L52.8784 37.744ZM52.0784 38.928L51.3074 38.2911L51.299 38.3013L51.2909 38.3117L52.0784 38.928ZM50.5424 40.56L51.2113 41.3033L51.2181 41.2972L51.2247 41.2911L50.5424 40.56ZM48.1744 42.032L47.7779 41.1139L47.7692 41.1177L47.7606 41.1216L48.1744 42.032ZM38.8624 39.984L38.0486 40.5653L38.0532 40.5716L38.8624 39.984ZM36.9424 19.632H37.9424V19.226L37.6594 18.9349L36.9424 19.632ZM35.8224 18.48H34.8224V18.886L35.1054 19.1771L35.8224 18.48ZM35.8224 14.8V13.8H34.8224V14.8H35.8224ZM47.4384 14.8H48.4384V13.8H47.4384V14.8ZM47.4384 33.04L48.4381 33.0622L48.4384 33.0511V33.04H47.4384ZM47.9184 35.184L47.1096 35.7722L47.1162 35.7812L47.1229 35.79L47.9184 35.184ZM50.1264 35.856V36.856H50.2254L50.3225 36.8366L50.1264 35.856ZM50.4464 35.792L50.6425 36.7726L50.7325 36.7546L50.8178 36.7205L50.4464 35.792ZM50.7024 35.696L50.4598 34.7259L50.4226 34.7352L50.3861 34.7473L50.7024 35.696ZM50.9904 35.6L51.3618 36.5285L51.4362 36.4987L51.5049 36.4575L50.9904 35.6ZM51.2464 35.44L50.6917 34.6079L50.6917 34.608L51.2464 35.44ZM51.5024 35.28L52.0169 36.1375L52.0745 36.1029L52.1271 36.0609L51.5024 35.28ZM51.7264 35.088L51.1717 34.256L51.0893 34.3109L51.0193 34.3809L51.7264 35.088ZM51.9824 34.896L52.6071 35.6769L52.6149 35.6706L52.6226 35.6642L51.9824 34.896ZM52.2704 34.672L52.8251 35.5041L53.2704 35.2072V34.672H52.2704ZM52.2704 19.632H53.2704V19.0968L52.8251 18.7999L52.2704 19.632ZM50.5424 18.48H49.5424V19.0152L49.9877 19.312L50.5424 18.48ZM50.5424 14.8V13.8H49.5424V14.8H50.5424ZM62.7344 14.8H63.7344V13.8H62.7344V14.8ZM62.7344 42V43H63.7344V42H62.7344ZM53.8704 42L52.8965 42.227L53.0767 43H53.8704V42ZM51.9592 37.3501C51.8895 37.5128 51.6984 37.8178 51.3074 38.2911L52.8493 39.5649C53.269 39.0569 53.6113 38.5725 53.7975 38.1379L51.9592 37.3501ZM51.2909 38.3117C50.9488 38.7488 50.476 39.2541 49.8601 39.8289L51.2247 41.2911C51.8887 40.6713 52.4399 40.0886 52.8659 39.5443L51.2909 38.3117ZM49.8734 39.8167C49.3277 40.3079 48.6351 40.7438 47.7779 41.1139L48.5708 42.9501C49.591 42.5095 50.4771 41.9641 51.2113 41.3033L49.8734 39.8167ZM47.7606 41.1216C46.9421 41.4937 46.1333 41.672 45.3264 41.672V43.672C46.4395 43.672 47.5293 43.4237 48.5882 42.9424L47.7606 41.1216ZM45.3264 41.672C42.5143 41.672 40.722 40.8429 39.6715 39.3964L38.0532 40.5716C39.6054 42.7091 42.1225 43.672 45.3264 43.672V41.672ZM39.6761 39.4028C38.5853 37.8756 37.9424 35.1567 37.9424 31.024H35.9424C35.9424 35.2539 36.5795 38.5084 38.0486 40.5652L39.6761 39.4028ZM37.9424 31.024V19.632H35.9424V31.024H37.9424ZM37.6594 18.9349L36.5394 17.7829L35.1054 19.1771L36.2254 20.3291L37.6594 18.9349ZM36.8224 18.48V14.8H34.8224V18.48H36.8224ZM35.8224 15.8H47.4384V13.8H35.8224V15.8ZM46.4384 14.8V33.04H48.4384V14.8H46.4384ZM46.4386 33.0178C46.4153 34.0656 46.5793 35.043 47.1096 35.7722L48.7271 34.5958C48.5748 34.3863 48.4187 33.9344 48.4381 33.0622L46.4386 33.0178ZM47.1229 35.79C47.7431 36.604 48.7523 36.856 49.7744 36.856V34.856C49.0045 34.856 48.7763 34.66 48.7138 34.578L47.1229 35.79ZM49.7744 36.856C49.7746 36.856 49.7749 36.856 49.7751 36.856C49.7754 36.856 49.7756 36.856 49.7759 36.856C49.7761 36.856 49.7764 36.856 49.7766 36.856C49.7769 36.856 49.7771 36.856 49.7774 36.856C49.7776 36.856 49.7779 36.856 49.7781 36.856C49.7784 36.856 49.7786 36.856 49.7789 36.856C49.7791 36.856 49.7794 36.856 49.7796 36.856C49.7799 36.856 49.7801 36.856 49.7804 36.856C49.7806 36.856 49.7809 36.856 49.7811 36.856C49.7814 36.856 49.7816 36.856 49.7819 36.856C49.7821 36.856 49.7824 36.856 49.7826 36.856C49.7829 36.856 49.7831 36.856 49.7834 36.856C49.7836 36.856 49.7839 36.856 49.7841 36.856C49.7844 36.856 49.7846 36.856 49.7849 36.856C49.7851 36.856 49.7853 36.856 49.7856 36.856C49.7858 36.856 49.7861 36.856 49.7863 36.856C49.7866 36.856 49.7868 36.856 49.7871 36.856C49.7873 36.856 49.7876 36.856 49.7878 36.856C49.7881 36.856 49.7883 36.856 49.7886 36.856C49.7888 36.856 49.7891 36.856 49.7893 36.856C49.7896 36.856 49.7898 36.856 49.7901 36.856C49.7903 36.856 49.7906 36.856 49.7908 36.856C49.7911 36.856 49.7913 36.856 49.7916 36.856C49.7918 36.856 49.7921 36.856 49.7923 36.856C49.7925 36.856 49.7928 36.856 49.793 36.856C49.7933 36.856 49.7935 36.856 49.7938 36.856C49.794 36.856 49.7943 36.856 49.7945 36.856C49.7948 36.856 49.795 36.856 49.7953 36.856C49.7955 36.856 49.7958 36.856 49.796 36.856C49.7963 36.856 49.7965 36.856 49.7968 36.856C49.797 36.856 49.7973 36.856 49.7975 36.856C49.7978 36.856 49.798 36.856 49.7982 36.856C49.7985 36.856 49.7987 36.856 49.799 36.856C49.7992 36.856 49.7995 36.856 49.7997 36.856C49.8 36.856 49.8002 36.856 49.8005 36.856C49.8007 36.856 49.801 36.856 49.8012 36.856C49.8015 36.856 49.8017 36.856 49.802 36.856C49.8022 36.856 49.8025 36.856 49.8027 36.856C49.8029 36.856 49.8032 36.856 49.8034 36.856C49.8037 36.856 49.8039 36.856 49.8042 36.856C49.8044 36.856 49.8047 36.856 49.8049 36.856C49.8052 36.856 49.8054 36.856 49.8057 36.856C49.8059 36.856 49.8062 36.856 49.8064 36.856C49.8066 36.856 49.8069 36.856 49.8071 36.856C49.8074 36.856 49.8076 36.856 49.8079 36.856C49.8081 36.856 49.8084 36.856 49.8086 36.856C49.8089 36.856 49.8091 36.856 49.8094 36.856C49.8096 36.856 49.8098 36.856 49.8101 36.856C49.8103 36.856 49.8106 36.856 49.8108 36.856C49.8111 36.856 49.8113 36.856 49.8116 36.856C49.8118 36.856 49.8121 36.856 49.8123 36.856C49.8126 36.856 49.8128 36.856 49.813 36.856C49.8133 36.856 49.8135 36.856 49.8138 36.856C49.814 36.856 49.8143 36.856 49.8145 36.856C49.8148 36.856 49.815 36.856 49.8153 36.856C49.8155 36.856 49.8158 36.856 49.816 36.856C49.8162 36.856 49.8165 36.856 49.8167 36.856C49.817 36.856 49.8172 36.856 49.8175 36.856C49.8177 36.856 49.818 36.856 49.8182 36.856C49.8184 36.856 49.8187 36.856 49.8189 36.856C49.8192 36.856 49.8194 36.856 49.8197 36.856C49.8199 36.856 49.8202 36.856 49.8204 36.856C49.8206 36.856 49.8209 36.856 49.8211 36.856C49.8214 36.856 49.8216 36.856 49.8219 36.856C49.8221 36.856 49.8224 36.856 49.8226 36.856C49.8229 36.856 49.8231 36.856 49.8233 36.856C49.8236 36.856 49.8238 36.856 49.8241 36.856C49.8243 36.856 49.8246 36.856 49.8248 36.856C49.8251 36.856 49.8253 36.856 49.8255 36.856C49.8258 36.856 49.826 36.856 49.8263 36.856C49.8265 36.856 49.8268 36.856 49.827 36.856C49.8273 36.856 49.8275 36.856 49.8277 36.856C49.828 36.856 49.8282 36.856 49.8285 36.856C49.8287 36.856 49.829 36.856 49.8292 36.856C49.8295 36.856 49.8297 36.856 49.8299 36.856C49.8302 36.856 49.8304 36.856 49.8307 36.856C49.8309 36.856 49.8312 36.856 49.8314 36.856C49.8316 36.856 49.8319 36.856 49.8321 36.856C49.8324 36.856 49.8326 36.856 49.8329 36.856C49.8331 36.856 49.8334 36.856 49.8336 36.856C49.8338 36.856 49.8341 36.856 49.8343 36.856C49.8346 36.856 49.8348 36.856 49.8351 36.856C49.8353 36.856 49.8355 36.856 49.8358 36.856C49.836 36.856 49.8363 36.856 49.8365 36.856C49.8368 36.856 49.837 36.856 49.8372 36.856C49.8375 36.856 49.8377 36.856 49.838 36.856C49.8382 36.856 49.8385 36.856 49.8387 36.856C49.8389 36.856 49.8392 36.856 49.8394 36.856C49.8397 36.856 49.8399 36.856 49.8402 36.856C49.8404 36.856 49.8406 36.856 49.8409 36.856C49.8411 36.856 49.8414 36.856 49.8416 36.856C49.8419 36.856 49.8421 36.856 49.8423 36.856C49.8426 36.856 49.8428 36.856 49.8431 36.856C49.8433 36.856 49.8436 36.856 49.8438 36.856C49.844 36.856 49.8443 36.856 49.8445 36.856C49.8448 36.856 49.845 36.856 49.8453 36.856C49.8455 36.856 49.8457 36.856 49.846 36.856C49.8462 36.856 49.8465 36.856 49.8467 36.856C49.8469 36.856 49.8472 36.856 49.8474 36.856C49.8477 36.856 49.8479 36.856 49.8482 36.856C49.8484 36.856 49.8486 36.856 49.8489 36.856C49.8491 36.856 49.8494 36.856 49.8496 36.856C49.8498 36.856 49.8501 36.856 49.8503 36.856C49.8506 36.856 49.8508 36.856 49.8511 36.856C49.8513 36.856 49.8515 36.856 49.8518 36.856C49.852 36.856 49.8523 36.856 49.8525 36.856C49.8527 36.856 49.853 36.856 49.8532 36.856C49.8535 36.856 49.8537 36.856 49.854 36.856C49.8542 36.856 49.8544 36.856 49.8547 36.856C49.8549 36.856 49.8552 36.856 49.8554 36.856C49.8556 36.856 49.8559 36.856 49.8561 36.856C49.8564 36.856 49.8566 36.856 49.8568 36.856C49.8571 36.856 49.8573 36.856 49.8576 36.856C49.8578 36.856 49.858 36.856 49.8583 36.856C49.8585 36.856 49.8588 36.856 49.859 36.856C49.8593 36.856 49.8595 36.856 49.8597 36.856C49.86 36.856 49.8602 36.856 49.8605 36.856C49.8607 36.856 49.8609 36.856 49.8612 36.856C49.8614 36.856 49.8617 36.856 49.8619 36.856C49.8621 36.856 49.8624 36.856 49.8626 36.856C49.8629 36.856 49.8631 36.856 49.8633 36.856C49.8636 36.856 49.8638 36.856 49.8641 36.856C49.8643 36.856 49.8645 36.856 49.8648 36.856C49.865 36.856 49.8653 36.856 49.8655 36.856C49.8657 36.856 49.866 36.856 49.8662 36.856C49.8665 36.856 49.8667 36.856 49.8669 36.856C49.8672 36.856 49.8674 36.856 49.8677 36.856C49.8679 36.856 49.8681 36.856 49.8684 36.856C49.8686 36.856 49.8689 36.856 49.8691 36.856C49.8693 36.856 49.8696 36.856 49.8698 36.856C49.87 36.856 49.8703 36.856 49.8705 36.856C49.8708 36.856 49.871 36.856 49.8712 36.856C49.8715 36.856 49.8717 36.856 49.872 36.856C49.8722 36.856 49.8724 36.856 49.8727 36.856C49.8729 36.856 49.8732 36.856 49.8734 36.856C49.8736 36.856 49.8739 36.856 49.8741 36.856C49.8744 36.856 49.8746 36.856 49.8748 36.856C49.8751 36.856 49.8753 36.856 49.8755 36.856C49.8758 36.856 49.876 36.856 49.8763 36.856C49.8765 36.856 49.8767 36.856 49.877 36.856C49.8772 36.856 49.8775 36.856 49.8777 36.856C49.8779 36.856 49.8782 36.856 49.8784 36.856C49.8787 36.856 49.8789 36.856 49.8791 36.856C49.8794 36.856 49.8796 36.856 49.8798 36.856C49.8801 36.856 49.8803 36.856 49.8806 36.856C49.8808 36.856 49.881 36.856 49.8813 36.856C49.8815 36.856 49.8818 36.856 49.882 36.856C49.8822 36.856 49.8825 36.856 49.8827 36.856C49.8829 36.856 49.8832 36.856 49.8834 36.856C49.8837 36.856 49.8839 36.856 49.8841 36.856C49.8844 36.856 49.8846 36.856 49.8848 36.856C49.8851 36.856 49.8853 36.856 49.8856 36.856C49.8858 36.856 49.886 36.856 49.8863 36.856C49.8865 36.856 49.8867 36.856 49.887 36.856C49.8872 36.856 49.8875 36.856 49.8877 36.856C49.8879 36.856 49.8882 36.856 49.8884 36.856C49.8886 36.856 49.8889 36.856 49.8891 36.856C49.8894 36.856 49.8896 36.856 49.8898 36.856C49.8901 36.856 49.8903 36.856 49.8905 36.856C49.8908 36.856 49.891 36.856 49.8913 36.856C49.8915 36.856 49.8917 36.856 49.892 36.856C49.8922 36.856 49.8924 36.856 49.8927 36.856C49.8929 36.856 49.8931 36.856 49.8934 36.856C49.8936 36.856 49.8939 36.856 49.8941 36.856C49.8943 36.856 49.8946 36.856 49.8948 36.856C49.895 36.856 49.8953 36.856 49.8955 36.856C49.8957 36.856 49.896 36.856 49.8962 36.856C49.8965 36.856 49.8967 36.856 49.8969 36.856C49.8972 36.856 49.8974 36.856 49.8976 36.856C49.8979 36.856 49.8981 36.856 49.8983 36.856C49.8986 36.856 49.8988 36.856 49.8991 36.856C49.8993 36.856 49.8995 36.856 49.8998 36.856C49.9 36.856 49.9002 36.856 49.9005 36.856C49.9007 36.856 49.9009 36.856 49.9012 36.856C49.9014 36.856 49.9016 36.856 49.9019 36.856C49.9021 36.856 49.9024 36.856 49.9026 36.856C49.9028 36.856 49.9031 36.856 49.9033 36.856C49.9035 36.856 49.9038 36.856 49.904 36.856C49.9042 36.856 49.9045 36.856 49.9047 36.856C49.905 36.856 49.9052 36.856 49.9054 36.856C49.9057 36.856 49.9059 36.856 49.9061 36.856C49.9064 36.856 49.9066 36.856 49.9068 36.856C49.9071 36.856 49.9073 36.856 49.9075 36.856C49.9078 36.856 49.908 36.856 49.9082 36.856C49.9085 36.856 49.9087 36.856 49.909 36.856C49.9092 36.856 49.9094 36.856 49.9097 36.856C49.9099 36.856 49.9101 36.856 49.9104 36.856C49.9106 36.856 49.9108 36.856 49.9111 36.856C49.9113 36.856 49.9115 36.856 49.9118 36.856C49.912 36.856 49.9122 36.856 49.9125 36.856C49.9127 36.856 49.9129 36.856 49.9132 36.856C49.9134 36.856 49.9136 36.856 49.9139 36.856C49.9141 36.856 49.9143 36.856 49.9146 36.856C49.9148 36.856 49.915 36.856 49.9153 36.856C49.9155 36.856 49.9157 36.856 49.916 36.856C49.9162 36.856 49.9165 36.856 49.9167 36.856C49.9169 36.856 49.9172 36.856 49.9174 36.856C49.9176 36.856 49.9179 36.856 49.9181 36.856C49.9183 36.856 49.9186 36.856 49.9188 36.856C49.919 36.856 49.9193 36.856 49.9195 36.856C49.9197 36.856 49.92 36.856 49.9202 36.856C49.9204 36.856 49.9207 36.856 49.9209 36.856C49.9211 36.856 49.9214 36.856 49.9216 36.856C49.9218 36.856 49.9221 36.856 49.9223 36.856C49.9225 36.856 49.9228 36.856 49.923 36.856C49.9232 36.856 49.9235 36.856 49.9237 36.856C49.9239 36.856 49.9242 36.856 49.9244 36.856C49.9246 36.856 49.9249 36.856 49.9251 36.856C49.9253 36.856 49.9256 36.856 49.9258 36.856C49.926 36.856 49.9263 36.856 49.9265 36.856C49.9267 36.856 49.927 36.856 49.9272 36.856C49.9274 36.856 49.9277 36.856 49.9279 36.856C49.9281 36.856 49.9284 36.856 49.9286 36.856C49.9288 36.856 49.9291 36.856 49.9293 36.856C49.9295 36.856 49.9297 36.856 49.93 36.856C49.9302 36.856 49.9305 36.856 49.9307 36.856C49.9309 36.856 49.9311 36.856 49.9314 36.856C49.9316 36.856 49.9318 36.856 49.9321 36.856C49.9323 36.856 49.9325 36.856 49.9328 36.856C49.933 36.856 49.9332 36.856 49.9335 36.856C49.9337 36.856 49.9339 36.856 49.9342 36.856C49.9344 36.856 49.9346 36.856 49.9349 36.856C49.9351 36.856 49.9353 36.856 49.9356 36.856C49.9358 36.856 49.936 36.856 49.9362 36.856C49.9365 36.856 49.9367 36.856 49.9369 36.856C49.9372 36.856 49.9374 36.856 49.9376 36.856C49.9379 36.856 49.9381 36.856 49.9383 36.856C49.9386 36.856 49.9388 36.856 49.939 36.856C49.9393 36.856 49.9395 36.856 49.9397 36.856C49.94 36.856 49.9402 36.856 49.9404 36.856C49.9407 36.856 49.9409 36.856 49.9411 36.856C49.9413 36.856 49.9416 36.856 49.9418 36.856C49.942 36.856 49.9423 36.856 49.9425 36.856C49.9427 36.856 49.943 36.856 49.9432 36.856C49.9434 36.856 49.9436 36.856 49.9439 36.856C49.9441 36.856 49.9443 36.856 49.9446 36.856C49.9448 36.856 49.945 36.856 49.9453 36.856C49.9455 36.856 49.9457 36.856 49.946 36.856C49.9462 36.856 49.9464 36.856 49.9467 36.856C49.9469 36.856 49.9471 36.856 49.9473 36.856C49.9476 36.856 49.9478 36.856 49.948 36.856C49.9483 36.856 49.9485 36.856 49.9487 36.856C49.949 36.856 49.9492 36.856 49.9494 36.856C49.9496 36.856 49.9499 36.856 49.9501 36.856C49.9503 36.856 49.9506 36.856 49.9508 36.856C49.951 36.856 49.9513 36.856 49.9515 36.856C49.9517 36.856 49.952 36.856 49.9522 36.856C49.9524 36.856 49.9526 36.856 49.9529 36.856C49.9531 36.856 49.9533 36.856 49.9536 36.856C49.9538 36.856 49.954 36.856 49.9542 36.856C49.9545 36.856 49.9547 36.856 49.9549 36.856C49.9552 36.856 49.9554 36.856 49.9556 36.856C49.9559 36.856 49.9561 36.856 49.9563 36.856C49.9565 36.856 49.9568 36.856 49.957 36.856C49.9572 36.856 49.9575 36.856 49.9577 36.856C49.9579 36.856 49.9581 36.856 49.9584 36.856C49.9586 36.856 49.9588 36.856 49.9591 36.856C49.9593 36.856 49.9595 36.856 49.9597 36.856C49.96 36.856 49.9602 36.856 49.9604 36.856C49.9607 36.856 49.9609 36.856 49.9611 36.856C49.9613 36.856 49.9616 36.856 49.9618 36.856C49.962 36.856 49.9623 36.856 49.9625 36.856C49.9627 36.856 49.963 36.856 49.9632 36.856C49.9634 36.856 49.9636 36.856 49.9639 36.856C49.9641 36.856 49.9643 36.856 49.9646 36.856C49.9648 36.856 49.965 36.856 49.9652 36.856C49.9655 36.856 49.9657 36.856 49.9659 36.856C49.9661 36.856 49.9664 36.856 49.9666 36.856C49.9668 36.856 49.9671 36.856 49.9673 36.856C49.9675 36.856 49.9678 36.856 49.968 36.856C49.9682 36.856 49.9684 36.856 49.9687 36.856C49.9689 36.856 49.9691 36.856 49.9693 36.856C49.9696 36.856 49.9698 36.856 49.97 36.856C49.9703 36.856 49.9705 36.856 49.9707 36.856C49.9709 36.856 49.9712 36.856 49.9714 36.856C49.9716 36.856 49.9718 36.856 49.9721 36.856C49.9723 36.856 49.9725 36.856 49.9728 36.856C49.973 36.856 49.9732 36.856 49.9734 36.856C49.9737 36.856 49.9739 36.856 49.9741 36.856C49.9743 36.856 49.9746 36.856 49.9748 36.856C49.975 36.856 49.9753 36.856 49.9755 36.856C49.9757 36.856 49.9759 36.856 49.9762 36.856C49.9764 36.856 49.9766 36.856 49.9769 36.856C49.9771 36.856 49.9773 36.856 49.9775 36.856C49.9778 36.856 49.978 36.856 49.9782 36.856C49.9784 36.856 49.9787 36.856 49.9789 36.856C49.9791 36.856 49.9793 36.856 49.9796 36.856C49.9798 36.856 49.98 36.856 49.9802 36.856C49.9805 36.856 49.9807 36.856 49.9809 36.856C49.9812 36.856 49.9814 36.856 49.9816 36.856C49.9818 36.856 49.9821 36.856 49.9823 36.856C49.9825 36.856 49.9827 36.856 49.983 36.856C49.9832 36.856 49.9834 36.856 49.9836 36.856C49.9839 36.856 49.9841 36.856 49.9843 36.856C49.9846 36.856 49.9848 36.856 49.985 36.856C49.9852 36.856 49.9855 36.856 49.9857 36.856C49.9859 36.856 49.9861 36.856 49.9864 36.856C49.9866 36.856 49.9868 36.856 49.987 36.856C49.9873 36.856 49.9875 36.856 49.9877 36.856C49.9879 36.856 49.9882 36.856 49.9884 36.856C49.9886 36.856 49.9888 36.856 49.9891 36.856C49.9893 36.856 49.9895 36.856 49.9897 36.856C49.99 36.856 49.9902 36.856 49.9904 36.856C49.9906 36.856 49.9909 36.856 49.9911 36.856C49.9913 36.856 49.9915 36.856 49.9918 36.856C49.992 36.856 49.9922 36.856 49.9924 36.856C49.9927 36.856 49.9929 36.856 49.9931 36.856C49.9933 36.856 49.9936 36.856 49.9938 36.856C49.994 36.856 49.9942 36.856 49.9945 36.856C49.9947 36.856 49.9949 36.856 49.9951 36.856C49.9954 36.856 49.9956 36.856 49.9958 36.856C49.996 36.856 49.9963 36.856 49.9965 36.856C49.9967 36.856 49.9969 36.856 49.9972 36.856C49.9974 36.856 49.9976 36.856 49.9978 36.856C49.9981 36.856 49.9983 36.856 49.9985 36.856C49.9987 36.856 49.999 36.856 49.9992 36.856C49.9994 36.856 49.9996 36.856 49.9999 36.856C50.0001 36.856 50.0003 36.856 50.0005 36.856C50.0008 36.856 50.001 36.856 50.0012 36.856C50.0014 36.856 50.0016 36.856 50.0019 36.856C50.0021 36.856 50.0023 36.856 50.0025 36.856C50.0028 36.856 50.003 36.856 50.0032 36.856C50.0034 36.856 50.0037 36.856 50.0039 36.856C50.0041 36.856 50.0043 36.856 50.0046 36.856C50.0048 36.856 50.005 36.856 50.0052 36.856C50.0055 36.856 50.0057 36.856 50.0059 36.856C50.0061 36.856 50.0063 36.856 50.0066 36.856C50.0068 36.856 50.007 36.856 50.0072 36.856C50.0075 36.856 50.0077 36.856 50.0079 36.856C50.0081 36.856 50.0084 36.856 50.0086 36.856C50.0088 36.856 50.009 36.856 50.0093 36.856C50.0095 36.856 50.0097 36.856 50.0099 36.856C50.0101 36.856 50.0104 36.856 50.0106 36.856C50.0108 36.856 50.011 36.856 50.0113 36.856C50.0115 36.856 50.0117 36.856 50.0119 36.856C50.0121 36.856 50.0124 36.856 50.0126 36.856C50.0128 36.856 50.013 36.856 50.0133 36.856C50.0135 36.856 50.0137 36.856 50.0139 36.856C50.0142 36.856 50.0144 36.856 50.0146 36.856C50.0148 36.856 50.015 36.856 50.0153 36.856C50.0155 36.856 50.0157 36.856 50.0159 36.856C50.0162 36.856 50.0164 36.856 50.0166 36.856C50.0168 36.856 50.017 36.856 50.0173 36.856C50.0175 36.856 50.0177 36.856 50.0179 36.856C50.0182 36.856 50.0184 36.856 50.0186 36.856C50.0188 36.856 50.019 36.856 50.0193 36.856C50.0195 36.856 50.0197 36.856 50.0199 36.856C50.0201 36.856 50.0204 36.856 50.0206 36.856C50.0208 36.856 50.021 36.856 50.0213 36.856C50.0215 36.856 50.0217 36.856 50.0219 36.856C50.0221 36.856 50.0224 36.856 50.0226 36.856C50.0228 36.856 50.023 36.856 50.0232 36.856C50.0235 36.856 50.0237 36.856 50.0239 36.856C50.0241 36.856 50.0244 36.856 50.0246 36.856C50.0248 36.856 50.025 36.856 50.0252 36.856C50.0255 36.856 50.0257 36.856 50.0259 36.856C50.0261 36.856 50.0263 36.856 50.0266 36.856C50.0268 36.856 50.027 36.856 50.0272 36.856C50.0275 36.856 50.0277 36.856 50.0279 36.856C50.0281 36.856 50.0283 36.856 50.0286 36.856C50.0288 36.856 50.029 36.856 50.0292 36.856C50.0294 36.856 50.0297 36.856 50.0299 36.856C50.0301 36.856 50.0303 36.856 50.0305 36.856C50.0308 36.856 50.031 36.856 50.0312 36.856C50.0314 36.856 50.0316 36.856 50.0319 36.856C50.0321 36.856 50.0323 36.856 50.0325 36.856C50.0327 36.856 50.033 36.856 50.0332 36.856C50.0334 36.856 50.0336 36.856 50.0338 36.856C50.0341 36.856 50.0343 36.856 50.0345 36.856C50.0347 36.856 50.0349 36.856 50.0352 36.856C50.0354 36.856 50.0356 36.856 50.0358 36.856C50.036 36.856 50.0363 36.856 50.0365 36.856C50.0367 36.856 50.0369 36.856 50.0371 36.856C50.0374 36.856 50.0376 36.856 50.0378 36.856C50.038 36.856 50.0382 36.856 50.0385 36.856C50.0387 36.856 50.0389 36.856 50.0391 36.856C50.0393 36.856 50.0396 36.856 50.0398 36.856C50.04 36.856 50.0402 36.856 50.0404 36.856C50.0406 36.856 50.0409 36.856 50.0411 36.856C50.0413 36.856 50.0415 36.856 50.0417 36.856C50.042 36.856 50.0422 36.856 50.0424 36.856C50.0426 36.856 50.0428 36.856 50.0431 36.856C50.0433 36.856 50.0435 36.856 50.0437 36.856C50.0439 36.856 50.0442 36.856 50.0444 36.856C50.0446 36.856 50.0448 36.856 50.045 36.856C50.0452 36.856 50.0455 36.856 50.0457 36.856C50.0459 36.856 50.0461 36.856 50.0463 36.856C50.0466 36.856 50.0468 36.856 50.047 36.856C50.0472 36.856 50.0474 36.856 50.0477 36.856C50.0479 36.856 50.0481 36.856 50.0483 36.856C50.0485 36.856 50.0487 36.856 50.049 36.856C50.0492 36.856 50.0494 36.856 50.0496 36.856C50.0498 36.856 50.0501 36.856 50.0503 36.856C50.0505 36.856 50.0507 36.856 50.0509 36.856C50.0511 36.856 50.0514 36.856 50.0516 36.856C50.0518 36.856 50.052 36.856 50.0522 36.856C50.0525 36.856 50.0527 36.856 50.0529 36.856C50.0531 36.856 50.0533 36.856 50.0535 36.856C50.0538 36.856 50.054 36.856 50.0542 36.856C50.0544 36.856 50.0546 36.856 50.0548 36.856C50.0551 36.856 50.0553 36.856 50.0555 36.856C50.0557 36.856 50.0559 36.856 50.0561 36.856C50.0564 36.856 50.0566 36.856 50.0568 36.856C50.057 36.856 50.0572 36.856 50.0574 36.856C50.0577 36.856 50.0579 36.856 50.0581 36.856C50.0583 36.856 50.0585 36.856 50.0588 36.856C50.059 36.856 50.0592 36.856 50.0594 36.856C50.0596 36.856 50.0598 36.856 50.0601 36.856C50.0603 36.856 50.0605 36.856 50.0607 36.856C50.0609 36.856 50.0611 36.856 50.0614 36.856C50.0616 36.856 50.0618 36.856 50.062 36.856C50.0622 36.856 50.0624 36.856 50.0627 36.856C50.0629 36.856 50.0631 36.856 50.0633 36.856C50.0635 36.856 50.0637 36.856 50.0639 36.856C50.0642 36.856 50.0644 36.856 50.0646 36.856C50.0648 36.856 50.065 36.856 50.0652 36.856C50.0655 36.856 50.0657 36.856 50.0659 36.856C50.0661 36.856 50.0663 36.856 50.0665 36.856C50.0668 36.856 50.067 36.856 50.0672 36.856C50.0674 36.856 50.0676 36.856 50.0678 36.856C50.0681 36.856 50.0683 36.856 50.0685 36.856C50.0687 36.856 50.0689 36.856 50.0691 36.856C50.0694 36.856 50.0696 36.856 50.0698 36.856C50.07 36.856 50.0702 36.856 50.0704 36.856C50.0706 36.856 50.0709 36.856 50.0711 36.856C50.0713 36.856 50.0715 36.856 50.0717 36.856C50.0719 36.856 50.0722 36.856 50.0724 36.856C50.0726 36.856 50.0728 36.856 50.073 36.856C50.0732 36.856 50.0734 36.856 50.0737 36.856C50.0739 36.856 50.0741 36.856 50.0743 36.856C50.0745 36.856 50.0747 36.856 50.075 36.856C50.0752 36.856 50.0754 36.856 50.0756 36.856C50.0758 36.856 50.076 36.856 50.0762 36.856C50.0765 36.856 50.0767 36.856 50.0769 36.856C50.0771 36.856 50.0773 36.856 50.0775 36.856C50.0777 36.856 50.078 36.856 50.0782 36.856C50.0784 36.856 50.0786 36.856 50.0788 36.856C50.079 36.856 50.0792 36.856 50.0795 36.856C50.0797 36.856 50.0799 36.856 50.0801 36.856C50.0803 36.856 50.0805 36.856 50.0807 36.856C50.081 36.856 50.0812 36.856 50.0814 36.856C50.0816 36.856 50.0818 36.856 50.082 36.856C50.0822 36.856 50.0825 36.856 50.0827 36.856C50.0829 36.856 50.0831 36.856 50.0833 36.856C50.0835 36.856 50.0837 36.856 50.084 36.856C50.0842 36.856 50.0844 36.856 50.0846 36.856C50.0848 36.856 50.085 36.856 50.0852 36.856C50.0854 36.856 50.0857 36.856 50.0859 36.856C50.0861 36.856 50.0863 36.856 50.0865 36.856C50.0867 36.856 50.0869 36.856 50.0872 36.856C50.0874 36.856 50.0876 36.856 50.0878 36.856C50.088 36.856 50.0882 36.856 50.0884 36.856C50.0886 36.856 50.0889 36.856 50.0891 36.856C50.0893 36.856 50.0895 36.856 50.0897 36.856C50.0899 36.856 50.0901 36.856 50.0904 36.856C50.0906 36.856 50.0908 36.856 50.091 36.856C50.0912 36.856 50.0914 36.856 50.0916 36.856C50.0918 36.856 50.0921 36.856 50.0923 36.856C50.0925 36.856 50.0927 36.856 50.0929 36.856C50.0931 36.856 50.0933 36.856 50.0935 36.856C50.0938 36.856 50.094 36.856 50.0942 36.856C50.0944 36.856 50.0946 36.856 50.0948 36.856C50.095 36.856 50.0952 36.856 50.0955 36.856C50.0957 36.856 50.0959 36.856 50.0961 36.856C50.0963 36.856 50.0965 36.856 50.0967 36.856C50.0969 36.856 50.0972 36.856 50.0974 36.856C50.0976 36.856 50.0978 36.856 50.098 36.856C50.0982 36.856 50.0984 36.856 50.0986 36.856C50.0989 36.856 50.0991 36.856 50.0993 36.856C50.0995 36.856 50.0997 36.856 50.0999 36.856C50.1001 36.856 50.1003 36.856 50.1005 36.856C50.1008 36.856 50.101 36.856 50.1012 36.856C50.1014 36.856 50.1016 36.856 50.1018 36.856C50.102 36.856 50.1022 36.856 50.1024 36.856C50.1027 36.856 50.1029 36.856 50.1031 36.856C50.1033 36.856 50.1035 36.856 50.1037 36.856C50.1039 36.856 50.1041 36.856 50.1043 36.856C50.1046 36.856 50.1048 36.856 50.105 36.856C50.1052 36.856 50.1054 36.856 50.1056 36.856C50.1058 36.856 50.106 36.856 50.1062 36.856C50.1065 36.856 50.1067 36.856 50.1069 36.856C50.1071 36.856 50.1073 36.856 50.1075 36.856C50.1077 36.856 50.1079 36.856 50.1081 36.856C50.1084 36.856 50.1086 36.856 50.1088 36.856C50.109 36.856 50.1092 36.856 50.1094 36.856C50.1096 36.856 50.1098 36.856 50.11 36.856C50.1103 36.856 50.1105 36.856 50.1107 36.856C50.1109 36.856 50.1111 36.856 50.1113 36.856C50.1115 36.856 50.1117 36.856 50.1119 36.856C50.1121 36.856 50.1124 36.856 50.1126 36.856C50.1128 36.856 50.113 36.856 50.1132 36.856C50.1134 36.856 50.1136 36.856 50.1138 36.856C50.114 36.856 50.1142 36.856 50.1145 36.856C50.1147 36.856 50.1149 36.856 50.1151 36.856C50.1153 36.856 50.1155 36.856 50.1157 36.856C50.1159 36.856 50.1161 36.856 50.1163 36.856C50.1166 36.856 50.1168 36.856 50.117 36.856C50.1172 36.856 50.1174 36.856 50.1176 36.856C50.1178 36.856 50.118 36.856 50.1182 36.856C50.1184 36.856 50.1186 36.856 50.1189 36.856C50.1191 36.856 50.1193 36.856 50.1195 36.856C50.1197 36.856 50.1199 36.856 50.1201 36.856C50.1203 36.856 50.1205 36.856 50.1207 36.856C50.1209 36.856 50.1212 36.856 50.1214 36.856C50.1216 36.856 50.1218 36.856 50.122 36.856C50.1222 36.856 50.1224 36.856 50.1226 36.856C50.1228 36.856 50.123 36.856 50.1232 36.856C50.1235 36.856 50.1237 36.856 50.1239 36.856C50.1241 36.856 50.1243 36.856 50.1245 36.856C50.1247 36.856 50.1249 36.856 50.1251 36.856C50.1253 36.856 50.1255 36.856 50.1257 36.856C50.126 36.856 50.1262 36.856 50.1264 36.856V34.856C50.1262 34.856 50.126 34.856 50.1257 34.856C50.1255 34.856 50.1253 34.856 50.1251 34.856C50.1249 34.856 50.1247 34.856 50.1245 34.856C50.1243 34.856 50.1241 34.856 50.1239 34.856C50.1237 34.856 50.1235 34.856 50.1232 34.856C50.123 34.856 50.1228 34.856 50.1226 34.856C50.1224 34.856 50.1222 34.856 50.122 34.856C50.1218 34.856 50.1216 34.856 50.1214 34.856C50.1212 34.856 50.1209 34.856 50.1207 34.856C50.1205 34.856 50.1203 34.856 50.1201 34.856C50.1199 34.856 50.1197 34.856 50.1195 34.856C50.1193 34.856 50.1191 34.856 50.1189 34.856C50.1186 34.856 50.1184 34.856 50.1182 34.856C50.118 34.856 50.1178 34.856 50.1176 34.856C50.1174 34.856 50.1172 34.856 50.117 34.856C50.1168 34.856 50.1166 34.856 50.1163 34.856C50.1161 34.856 50.1159 34.856 50.1157 34.856C50.1155 34.856 50.1153 34.856 50.1151 34.856C50.1149 34.856 50.1147 34.856 50.1145 34.856C50.1142 34.856 50.114 34.856 50.1138 34.856C50.1136 34.856 50.1134 34.856 50.1132 34.856C50.113 34.856 50.1128 34.856 50.1126 34.856C50.1124 34.856 50.1121 34.856 50.1119 34.856C50.1117 34.856 50.1115 34.856 50.1113 34.856C50.1111 34.856 50.1109 34.856 50.1107 34.856C50.1105 34.856 50.1103 34.856 50.11 34.856C50.1098 34.856 50.1096 34.856 50.1094 34.856C50.1092 34.856 50.109 34.856 50.1088 34.856C50.1086 34.856 50.1084 34.856 50.1081 34.856C50.1079 34.856 50.1077 34.856 50.1075 34.856C50.1073 34.856 50.1071 34.856 50.1069 34.856C50.1067 34.856 50.1065 34.856 50.1062 34.856C50.106 34.856 50.1058 34.856 50.1056 34.856C50.1054 34.856 50.1052 34.856 50.105 34.856C50.1048 34.856 50.1046 34.856 50.1043 34.856C50.1041 34.856 50.1039 34.856 50.1037 34.856C50.1035 34.856 50.1033 34.856 50.1031 34.856C50.1029 34.856 50.1027 34.856 50.1024 34.856C50.1022 34.856 50.102 34.856 50.1018 34.856C50.1016 34.856 50.1014 34.856 50.1012 34.856C50.101 34.856 50.1008 34.856 50.1005 34.856C50.1003 34.856 50.1001 34.856 50.0999 34.856C50.0997 34.856 50.0995 34.856 50.0993 34.856C50.0991 34.856 50.0989 34.856 50.0986 34.856C50.0984 34.856 50.0982 34.856 50.098 34.856C50.0978 34.856 50.0976 34.856 50.0974 34.856C50.0972 34.856 50.0969 34.856 50.0967 34.856C50.0965 34.856 50.0963 34.856 50.0961 34.856C50.0959 34.856 50.0957 34.856 50.0955 34.856C50.0952 34.856 50.095 34.856 50.0948 34.856C50.0946 34.856 50.0944 34.856 50.0942 34.856C50.094 34.856 50.0938 34.856 50.0935 34.856C50.0933 34.856 50.0931 34.856 50.0929 34.856C50.0927 34.856 50.0925 34.856 50.0923 34.856C50.0921 34.856 50.0918 34.856 50.0916 34.856C50.0914 34.856 50.0912 34.856 50.091 34.856C50.0908 34.856 50.0906 34.856 50.0904 34.856C50.0901 34.856 50.0899 34.856 50.0897 34.856C50.0895 34.856 50.0893 34.856 50.0891 34.856C50.0889 34.856 50.0886 34.856 50.0884 34.856C50.0882 34.856 50.088 34.856 50.0878 34.856C50.0876 34.856 50.0874 34.856 50.0872 34.856C50.0869 34.856 50.0867 34.856 50.0865 34.856C50.0863 34.856 50.0861 34.856 50.0859 34.856C50.0857 34.856 50.0854 34.856 50.0852 34.856C50.085 34.856 50.0848 34.856 50.0846 34.856C50.0844 34.856 50.0842 34.856 50.084 34.856C50.0837 34.856 50.0835 34.856 50.0833 34.856C50.0831 34.856 50.0829 34.856 50.0827 34.856C50.0825 34.856 50.0822 34.856 50.082 34.856C50.0818 34.856 50.0816 34.856 50.0814 34.856C50.0812 34.856 50.081 34.856 50.0807 34.856C50.0805 34.856 50.0803 34.856 50.0801 34.856C50.0799 34.856 50.0797 34.856 50.0795 34.856C50.0792 34.856 50.079 34.856 50.0788 34.856C50.0786 34.856 50.0784 34.856 50.0782 34.856C50.078 34.856 50.0777 34.856 50.0775 34.856C50.0773 34.856 50.0771 34.856 50.0769 34.856C50.0767 34.856 50.0765 34.856 50.0762 34.856C50.076 34.856 50.0758 34.856 50.0756 34.856C50.0754 34.856 50.0752 34.856 50.075 34.856C50.0747 34.856 50.0745 34.856 50.0743 34.856C50.0741 34.856 50.0739 34.856 50.0737 34.856C50.0734 34.856 50.0732 34.856 50.073 34.856C50.0728 34.856 50.0726 34.856 50.0724 34.856C50.0722 34.856 50.0719 34.856 50.0717 34.856C50.0715 34.856 50.0713 34.856 50.0711 34.856C50.0709 34.856 50.0706 34.856 50.0704 34.856C50.0702 34.856 50.07 34.856 50.0698 34.856C50.0696 34.856 50.0694 34.856 50.0691 34.856C50.0689 34.856 50.0687 34.856 50.0685 34.856C50.0683 34.856 50.0681 34.856 50.0678 34.856C50.0676 34.856 50.0674 34.856 50.0672 34.856C50.067 34.856 50.0668 34.856 50.0665 34.856C50.0663 34.856 50.0661 34.856 50.0659 34.856C50.0657 34.856 50.0655 34.856 50.0652 34.856C50.065 34.856 50.0648 34.856 50.0646 34.856C50.0644 34.856 50.0642 34.856 50.0639 34.856C50.0637 34.856 50.0635 34.856 50.0633 34.856C50.0631 34.856 50.0629 34.856 50.0627 34.856C50.0624 34.856 50.0622 34.856 50.062 34.856C50.0618 34.856 50.0616 34.856 50.0614 34.856C50.0611 34.856 50.0609 34.856 50.0607 34.856C50.0605 34.856 50.0603 34.856 50.0601 34.856C50.0598 34.856 50.0596 34.856 50.0594 34.856C50.0592 34.856 50.059 34.856 50.0588 34.856C50.0585 34.856 50.0583 34.856 50.0581 34.856C50.0579 34.856 50.0577 34.856 50.0574 34.856C50.0572 34.856 50.057 34.856 50.0568 34.856C50.0566 34.856 50.0564 34.856 50.0561 34.856C50.0559 34.856 50.0557 34.856 50.0555 34.856C50.0553 34.856 50.0551 34.856 50.0548 34.856C50.0546 34.856 50.0544 34.856 50.0542 34.856C50.054 34.856 50.0538 34.856 50.0535 34.856C50.0533 34.856 50.0531 34.856 50.0529 34.856C50.0527 34.856 50.0525 34.856 50.0522 34.856C50.052 34.856 50.0518 34.856 50.0516 34.856C50.0514 34.856 50.0511 34.856 50.0509 34.856C50.0507 34.856 50.0505 34.856 50.0503 34.856C50.0501 34.856 50.0498 34.856 50.0496 34.856C50.0494 34.856 50.0492 34.856 50.049 34.856C50.0487 34.856 50.0485 34.856 50.0483 34.856C50.0481 34.856 50.0479 34.856 50.0477 34.856C50.0474 34.856 50.0472 34.856 50.047 34.856C50.0468 34.856 50.0466 34.856 50.0463 34.856C50.0461 34.856 50.0459 34.856 50.0457 34.856C50.0455 34.856 50.0452 34.856 50.045 34.856C50.0448 34.856 50.0446 34.856 50.0444 34.856C50.0442 34.856 50.0439 34.856 50.0437 34.856C50.0435 34.856 50.0433 34.856 50.0431 34.856C50.0428 34.856 50.0426 34.856 50.0424 34.856C50.0422 34.856 50.042 34.856 50.0417 34.856C50.0415 34.856 50.0413 34.856 50.0411 34.856C50.0409 34.856 50.0406 34.856 50.0404 34.856C50.0402 34.856 50.04 34.856 50.0398 34.856C50.0396 34.856 50.0393 34.856 50.0391 34.856C50.0389 34.856 50.0387 34.856 50.0385 34.856C50.0382 34.856 50.038 34.856 50.0378 34.856C50.0376 34.856 50.0374 34.856 50.0371 34.856C50.0369 34.856 50.0367 34.856 50.0365 34.856C50.0363 34.856 50.036 34.856 50.0358 34.856C50.0356 34.856 50.0354 34.856 50.0352 34.856C50.0349 34.856 50.0347 34.856 50.0345 34.856C50.0343 34.856 50.0341 34.856 50.0338 34.856C50.0336 34.856 50.0334 34.856 50.0332 34.856C50.033 34.856 50.0327 34.856 50.0325 34.856C50.0323 34.856 50.0321 34.856 50.0319 34.856C50.0316 34.856 50.0314 34.856 50.0312 34.856C50.031 34.856 50.0308 34.856 50.0305 34.856C50.0303 34.856 50.0301 34.856 50.0299 34.856C50.0297 34.856 50.0294 34.856 50.0292 34.856C50.029 34.856 50.0288 34.856 50.0286 34.856C50.0283 34.856 50.0281 34.856 50.0279 34.856C50.0277 34.856 50.0275 34.856 50.0272 34.856C50.027 34.856 50.0268 34.856 50.0266 34.856C50.0263 34.856 50.0261 34.856 50.0259 34.856C50.0257 34.856 50.0255 34.856 50.0252 34.856C50.025 34.856 50.0248 34.856 50.0246 34.856C50.0244 34.856 50.0241 34.856 50.0239 34.856C50.0237 34.856 50.0235 34.856 50.0232 34.856C50.023 34.856 50.0228 34.856 50.0226 34.856C50.0224 34.856 50.0221 34.856 50.0219 34.856C50.0217 34.856 50.0215 34.856 50.0213 34.856C50.021 34.856 50.0208 34.856 50.0206 34.856C50.0204 34.856 50.0201 34.856 50.0199 34.856C50.0197 34.856 50.0195 34.856 50.0193 34.856C50.019 34.856 50.0188 34.856 50.0186 34.856C50.0184 34.856 50.0182 34.856 50.0179 34.856C50.0177 34.856 50.0175 34.856 50.0173 34.856C50.017 34.856 50.0168 34.856 50.0166 34.856C50.0164 34.856 50.0162 34.856 50.0159 34.856C50.0157 34.856 50.0155 34.856 50.0153 34.856C50.015 34.856 50.0148 34.856 50.0146 34.856C50.0144 34.856 50.0142 34.856 50.0139 34.856C50.0137 34.856 50.0135 34.856 50.0133 34.856C50.013 34.856 50.0128 34.856 50.0126 34.856C50.0124 34.856 50.0121 34.856 50.0119 34.856C50.0117 34.856 50.0115 34.856 50.0113 34.856C50.011 34.856 50.0108 34.856 50.0106 34.856C50.0104 34.856 50.0101 34.856 50.0099 34.856C50.0097 34.856 50.0095 34.856 50.0093 34.856C50.009 34.856 50.0088 34.856 50.0086 34.856C50.0084 34.856 50.0081 34.856 50.0079 34.856C50.0077 34.856 50.0075 34.856 50.0072 34.856C50.007 34.856 50.0068 34.856 50.0066 34.856C50.0063 34.856 50.0061 34.856 50.0059 34.856C50.0057 34.856 50.0055 34.856 50.0052 34.856C50.005 34.856 50.0048 34.856 50.0046 34.856C50.0043 34.856 50.0041 34.856 50.0039 34.856C50.0037 34.856 50.0034 34.856 50.0032 34.856C50.003 34.856 50.0028 34.856 50.0025 34.856C50.0023 34.856 50.0021 34.856 50.0019 34.856C50.0016 34.856 50.0014 34.856 50.0012 34.856C50.001 34.856 50.0008 34.856 50.0005 34.856C50.0003 34.856 50.0001 34.856 49.9999 34.856C49.9996 34.856 49.9994 34.856 49.9992 34.856C49.999 34.856 49.9987 34.856 49.9985 34.856C49.9983 34.856 49.9981 34.856 49.9978 34.856C49.9976 34.856 49.9974 34.856 49.9972 34.856C49.9969 34.856 49.9967 34.856 49.9965 34.856C49.9963 34.856 49.996 34.856 49.9958 34.856C49.9956 34.856 49.9954 34.856 49.9951 34.856C49.9949 34.856 49.9947 34.856 49.9945 34.856C49.9942 34.856 49.994 34.856 49.9938 34.856C49.9936 34.856 49.9933 34.856 49.9931 34.856C49.9929 34.856 49.9927 34.856 49.9924 34.856C49.9922 34.856 49.992 34.856 49.9918 34.856C49.9915 34.856 49.9913 34.856 49.9911 34.856C49.9909 34.856 49.9906 34.856 49.9904 34.856C49.9902 34.856 49.99 34.856 49.9897 34.856C49.9895 34.856 49.9893 34.856 49.9891 34.856C49.9888 34.856 49.9886 34.856 49.9884 34.856C49.9882 34.856 49.9879 34.856 49.9877 34.856C49.9875 34.856 49.9873 34.856 49.987 34.856C49.9868 34.856 49.9866 34.856 49.9864 34.856C49.9861 34.856 49.9859 34.856 49.9857 34.856C49.9855 34.856 49.9852 34.856 49.985 34.856C49.9848 34.856 49.9846 34.856 49.9843 34.856C49.9841 34.856 49.9839 34.856 49.9836 34.856C49.9834 34.856 49.9832 34.856 49.983 34.856C49.9827 34.856 49.9825 34.856 49.9823 34.856C49.9821 34.856 49.9818 34.856 49.9816 34.856C49.9814 34.856 49.9812 34.856 49.9809 34.856C49.9807 34.856 49.9805 34.856 49.9802 34.856C49.98 34.856 49.9798 34.856 49.9796 34.856C49.9793 34.856 49.9791 34.856 49.9789 34.856C49.9787 34.856 49.9784 34.856 49.9782 34.856C49.978 34.856 49.9778 34.856 49.9775 34.856C49.9773 34.856 49.9771 34.856 49.9769 34.856C49.9766 34.856 49.9764 34.856 49.9762 34.856C49.9759 34.856 49.9757 34.856 49.9755 34.856C49.9753 34.856 49.975 34.856 49.9748 34.856C49.9746 34.856 49.9743 34.856 49.9741 34.856C49.9739 34.856 49.9737 34.856 49.9734 34.856C49.9732 34.856 49.973 34.856 49.9728 34.856C49.9725 34.856 49.9723 34.856 49.9721 34.856C49.9718 34.856 49.9716 34.856 49.9714 34.856C49.9712 34.856 49.9709 34.856 49.9707 34.856C49.9705 34.856 49.9703 34.856 49.97 34.856C49.9698 34.856 49.9696 34.856 49.9693 34.856C49.9691 34.856 49.9689 34.856 49.9687 34.856C49.9684 34.856 49.9682 34.856 49.968 34.856C49.9678 34.856 49.9675 34.856 49.9673 34.856C49.9671 34.856 49.9668 34.856 49.9666 34.856C49.9664 34.856 49.9661 34.856 49.9659 34.856C49.9657 34.856 49.9655 34.856 49.9652 34.856C49.965 34.856 49.9648 34.856 49.9646 34.856C49.9643 34.856 49.9641 34.856 49.9639 34.856C49.9636 34.856 49.9634 34.856 49.9632 34.856C49.963 34.856 49.9627 34.856 49.9625 34.856C49.9623 34.856 49.962 34.856 49.9618 34.856C49.9616 34.856 49.9613 34.856 49.9611 34.856C49.9609 34.856 49.9607 34.856 49.9604 34.856C49.9602 34.856 49.96 34.856 49.9597 34.856C49.9595 34.856 49.9593 34.856 49.9591 34.856C49.9588 34.856 49.9586 34.856 49.9584 34.856C49.9581 34.856 49.9579 34.856 49.9577 34.856C49.9575 34.856 49.9572 34.856 49.957 34.856C49.9568 34.856 49.9565 34.856 49.9563 34.856C49.9561 34.856 49.9559 34.856 49.9556 34.856C49.9554 34.856 49.9552 34.856 49.9549 34.856C49.9547 34.856 49.9545 34.856 49.9542 34.856C49.954 34.856 49.9538 34.856 49.9536 34.856C49.9533 34.856 49.9531 34.856 49.9529 34.856C49.9526 34.856 49.9524 34.856 49.9522 34.856C49.952 34.856 49.9517 34.856 49.9515 34.856C49.9513 34.856 49.951 34.856 49.9508 34.856C49.9506 34.856 49.9503 34.856 49.9501 34.856C49.9499 34.856 49.9496 34.856 49.9494 34.856C49.9492 34.856 49.949 34.856 49.9487 34.856C49.9485 34.856 49.9483 34.856 49.948 34.856C49.9478 34.856 49.9476 34.856 49.9473 34.856C49.9471 34.856 49.9469 34.856 49.9467 34.856C49.9464 34.856 49.9462 34.856 49.946 34.856C49.9457 34.856 49.9455 34.856 49.9453 34.856C49.945 34.856 49.9448 34.856 49.9446 34.856C49.9443 34.856 49.9441 34.856 49.9439 34.856C49.9436 34.856 49.9434 34.856 49.9432 34.856C49.943 34.856 49.9427 34.856 49.9425 34.856C49.9423 34.856 49.942 34.856 49.9418 34.856C49.9416 34.856 49.9413 34.856 49.9411 34.856C49.9409 34.856 49.9407 34.856 49.9404 34.856C49.9402 34.856 49.94 34.856 49.9397 34.856C49.9395 34.856 49.9393 34.856 49.939 34.856C49.9388 34.856 49.9386 34.856 49.9383 34.856C49.9381 34.856 49.9379 34.856 49.9376 34.856C49.9374 34.856 49.9372 34.856 49.9369 34.856C49.9367 34.856 49.9365 34.856 49.9362 34.856C49.936 34.856 49.9358 34.856 49.9356 34.856C49.9353 34.856 49.9351 34.856 49.9349 34.856C49.9346 34.856 49.9344 34.856 49.9342 34.856C49.9339 34.856 49.9337 34.856 49.9335 34.856C49.9332 34.856 49.933 34.856 49.9328 34.856C49.9325 34.856 49.9323 34.856 49.9321 34.856C49.9318 34.856 49.9316 34.856 49.9314 34.856C49.9311 34.856 49.9309 34.856 49.9307 34.856C49.9305 34.856 49.9302 34.856 49.93 34.856C49.9297 34.856 49.9295 34.856 49.9293 34.856C49.9291 34.856 49.9288 34.856 49.9286 34.856C49.9284 34.856 49.9281 34.856 49.9279 34.856C49.9277 34.856 49.9274 34.856 49.9272 34.856C49.927 34.856 49.9267 34.856 49.9265 34.856C49.9263 34.856 49.926 34.856 49.9258 34.856C49.9256 34.856 49.9253 34.856 49.9251 34.856C49.9249 34.856 49.9246 34.856 49.9244 34.856C49.9242 34.856 49.9239 34.856 49.9237 34.856C49.9235 34.856 49.9232 34.856 49.923 34.856C49.9228 34.856 49.9225 34.856 49.9223 34.856C49.9221 34.856 49.9218 34.856 49.9216 34.856C49.9214 34.856 49.9211 34.856 49.9209 34.856C49.9207 34.856 49.9204 34.856 49.9202 34.856C49.92 34.856 49.9197 34.856 49.9195 34.856C49.9193 34.856 49.919 34.856 49.9188 34.856C49.9186 34.856 49.9183 34.856 49.9181 34.856C49.9179 34.856 49.9176 34.856 49.9174 34.856C49.9172 34.856 49.9169 34.856 49.9167 34.856C49.9165 34.856 49.9162 34.856 49.916 34.856C49.9157 34.856 49.9155 34.856 49.9153 34.856C49.915 34.856 49.9148 34.856 49.9146 34.856C49.9143 34.856 49.9141 34.856 49.9139 34.856C49.9136 34.856 49.9134 34.856 49.9132 34.856C49.9129 34.856 49.9127 34.856 49.9125 34.856C49.9122 34.856 49.912 34.856 49.9118 34.856C49.9115 34.856 49.9113 34.856 49.9111 34.856C49.9108 34.856 49.9106 34.856 49.9104 34.856C49.9101 34.856 49.9099 34.856 49.9097 34.856C49.9094 34.856 49.9092 34.856 49.909 34.856C49.9087 34.856 49.9085 34.856 49.9082 34.856C49.908 34.856 49.9078 34.856 49.9075 34.856C49.9073 34.856 49.9071 34.856 49.9068 34.856C49.9066 34.856 49.9064 34.856 49.9061 34.856C49.9059 34.856 49.9057 34.856 49.9054 34.856C49.9052 34.856 49.905 34.856 49.9047 34.856C49.9045 34.856 49.9042 34.856 49.904 34.856C49.9038 34.856 49.9035 34.856 49.9033 34.856C49.9031 34.856 49.9028 34.856 49.9026 34.856C49.9024 34.856 49.9021 34.856 49.9019 34.856C49.9016 34.856 49.9014 34.856 49.9012 34.856C49.9009 34.856 49.9007 34.856 49.9005 34.856C49.9002 34.856 49.9 34.856 49.8998 34.856C49.8995 34.856 49.8993 34.856 49.8991 34.856C49.8988 34.856 49.8986 34.856 49.8983 34.856C49.8981 34.856 49.8979 34.856 49.8976 34.856C49.8974 34.856 49.8972 34.856 49.8969 34.856C49.8967 34.856 49.8965 34.856 49.8962 34.856C49.896 34.856 49.8957 34.856 49.8955 34.856C49.8953 34.856 49.895 34.856 49.8948 34.856C49.8946 34.856 49.8943 34.856 49.8941 34.856C49.8939 34.856 49.8936 34.856 49.8934 34.856C49.8931 34.856 49.8929 34.856 49.8927 34.856C49.8924 34.856 49.8922 34.856 49.892 34.856C49.8917 34.856 49.8915 34.856 49.8913 34.856C49.891 34.856 49.8908 34.856 49.8905 34.856C49.8903 34.856 49.8901 34.856 49.8898 34.856C49.8896 34.856 49.8894 34.856 49.8891 34.856C49.8889 34.856 49.8886 34.856 49.8884 34.856C49.8882 34.856 49.8879 34.856 49.8877 34.856C49.8875 34.856 49.8872 34.856 49.887 34.856C49.8867 34.856 49.8865 34.856 49.8863 34.856C49.886 34.856 49.8858 34.856 49.8856 34.856C49.8853 34.856 49.8851 34.856 49.8848 34.856C49.8846 34.856 49.8844 34.856 49.8841 34.856C49.8839 34.856 49.8837 34.856 49.8834 34.856C49.8832 34.856 49.8829 34.856 49.8827 34.856C49.8825 34.856 49.8822 34.856 49.882 34.856C49.8818 34.856 49.8815 34.856 49.8813 34.856C49.881 34.856 49.8808 34.856 49.8806 34.856C49.8803 34.856 49.8801 34.856 49.8798 34.856C49.8796 34.856 49.8794 34.856 49.8791 34.856C49.8789 34.856 49.8787 34.856 49.8784 34.856C49.8782 34.856 49.8779 34.856 49.8777 34.856C49.8775 34.856 49.8772 34.856 49.877 34.856C49.8767 34.856 49.8765 34.856 49.8763 34.856C49.876 34.856 49.8758 34.856 49.8755 34.856C49.8753 34.856 49.8751 34.856 49.8748 34.856C49.8746 34.856 49.8744 34.856 49.8741 34.856C49.8739 34.856 49.8736 34.856 49.8734 34.856C49.8732 34.856 49.8729 34.856 49.8727 34.856C49.8724 34.856 49.8722 34.856 49.872 34.856C49.8717 34.856 49.8715 34.856 49.8712 34.856C49.871 34.856 49.8708 34.856 49.8705 34.856C49.8703 34.856 49.87 34.856 49.8698 34.856C49.8696 34.856 49.8693 34.856 49.8691 34.856C49.8689 34.856 49.8686 34.856 49.8684 34.856C49.8681 34.856 49.8679 34.856 49.8677 34.856C49.8674 34.856 49.8672 34.856 49.8669 34.856C49.8667 34.856 49.8665 34.856 49.8662 34.856C49.866 34.856 49.8657 34.856 49.8655 34.856C49.8653 34.856 49.865 34.856 49.8648 34.856C49.8645 34.856 49.8643 34.856 49.8641 34.856C49.8638 34.856 49.8636 34.856 49.8633 34.856C49.8631 34.856 49.8629 34.856 49.8626 34.856C49.8624 34.856 49.8621 34.856 49.8619 34.856C49.8617 34.856 49.8614 34.856 49.8612 34.856C49.8609 34.856 49.8607 34.856 49.8605 34.856C49.8602 34.856 49.86 34.856 49.8597 34.856C49.8595 34.856 49.8593 34.856 49.859 34.856C49.8588 34.856 49.8585 34.856 49.8583 34.856C49.858 34.856 49.8578 34.856 49.8576 34.856C49.8573 34.856 49.8571 34.856 49.8568 34.856C49.8566 34.856 49.8564 34.856 49.8561 34.856C49.8559 34.856 49.8556 34.856 49.8554 34.856C49.8552 34.856 49.8549 34.856 49.8547 34.856C49.8544 34.856 49.8542 34.856 49.854 34.856C49.8537 34.856 49.8535 34.856 49.8532 34.856C49.853 34.856 49.8527 34.856 49.8525 34.856C49.8523 34.856 49.852 34.856 49.8518 34.856C49.8515 34.856 49.8513 34.856 49.8511 34.856C49.8508 34.856 49.8506 34.856 49.8503 34.856C49.8501 34.856 49.8498 34.856 49.8496 34.856C49.8494 34.856 49.8491 34.856 49.8489 34.856C49.8486 34.856 49.8484 34.856 49.8482 34.856C49.8479 34.856 49.8477 34.856 49.8474 34.856C49.8472 34.856 49.8469 34.856 49.8467 34.856C49.8465 34.856 49.8462 34.856 49.846 34.856C49.8457 34.856 49.8455 34.856 49.8453 34.856C49.845 34.856 49.8448 34.856 49.8445 34.856C49.8443 34.856 49.844 34.856 49.8438 34.856C49.8436 34.856 49.8433 34.856 49.8431 34.856C49.8428 34.856 49.8426 34.856 49.8423 34.856C49.8421 34.856 49.8419 34.856 49.8416 34.856C49.8414 34.856 49.8411 34.856 49.8409 34.856C49.8406 34.856 49.8404 34.856 49.8402 34.856C49.8399 34.856 49.8397 34.856 49.8394 34.856C49.8392 34.856 49.8389 34.856 49.8387 34.856C49.8385 34.856 49.8382 34.856 49.838 34.856C49.8377 34.856 49.8375 34.856 49.8372 34.856C49.837 34.856 49.8368 34.856 49.8365 34.856C49.8363 34.856 49.836 34.856 49.8358 34.856C49.8355 34.856 49.8353 34.856 49.8351 34.856C49.8348 34.856 49.8346 34.856 49.8343 34.856C49.8341 34.856 49.8338 34.856 49.8336 34.856C49.8334 34.856 49.8331 34.856 49.8329 34.856C49.8326 34.856 49.8324 34.856 49.8321 34.856C49.8319 34.856 49.8316 34.856 49.8314 34.856C49.8312 34.856 49.8309 34.856 49.8307 34.856C49.8304 34.856 49.8302 34.856 49.8299 34.856C49.8297 34.856 49.8295 34.856 49.8292 34.856C49.829 34.856 49.8287 34.856 49.8285 34.856C49.8282 34.856 49.828 34.856 49.8277 34.856C49.8275 34.856 49.8273 34.856 49.827 34.856C49.8268 34.856 49.8265 34.856 49.8263 34.856C49.826 34.856 49.8258 34.856 49.8255 34.856C49.8253 34.856 49.8251 34.856 49.8248 34.856C49.8246 34.856 49.8243 34.856 49.8241 34.856C49.8238 34.856 49.8236 34.856 49.8233 34.856C49.8231 34.856 49.8229 34.856 49.8226 34.856C49.8224 34.856 49.8221 34.856 49.8219 34.856C49.8216 34.856 49.8214 34.856 49.8211 34.856C49.8209 34.856 49.8206 34.856 49.8204 34.856C49.8202 34.856 49.8199 34.856 49.8197 34.856C49.8194 34.856 49.8192 34.856 49.8189 34.856C49.8187 34.856 49.8184 34.856 49.8182 34.856C49.818 34.856 49.8177 34.856 49.8175 34.856C49.8172 34.856 49.817 34.856 49.8167 34.856C49.8165 34.856 49.8162 34.856 49.816 34.856C49.8158 34.856 49.8155 34.856 49.8153 34.856C49.815 34.856 49.8148 34.856 49.8145 34.856C49.8143 34.856 49.814 34.856 49.8138 34.856C49.8135 34.856 49.8133 34.856 49.813 34.856C49.8128 34.856 49.8126 34.856 49.8123 34.856C49.8121 34.856 49.8118 34.856 49.8116 34.856C49.8113 34.856 49.8111 34.856 49.8108 34.856C49.8106 34.856 49.8103 34.856 49.8101 34.856C49.8098 34.856 49.8096 34.856 49.8094 34.856C49.8091 34.856 49.8089 34.856 49.8086 34.856C49.8084 34.856 49.8081 34.856 49.8079 34.856C49.8076 34.856 49.8074 34.856 49.8071 34.856C49.8069 34.856 49.8066 34.856 49.8064 34.856C49.8062 34.856 49.8059 34.856 49.8057 34.856C49.8054 34.856 49.8052 34.856 49.8049 34.856C49.8047 34.856 49.8044 34.856 49.8042 34.856C49.8039 34.856 49.8037 34.856 49.8034 34.856C49.8032 34.856 49.8029 34.856 49.8027 34.856C49.8025 34.856 49.8022 34.856 49.802 34.856C49.8017 34.856 49.8015 34.856 49.8012 34.856C49.801 34.856 49.8007 34.856 49.8005 34.856C49.8002 34.856 49.8 34.856 49.7997 34.856C49.7995 34.856 49.7992 34.856 49.799 34.856C49.7987 34.856 49.7985 34.856 49.7982 34.856C49.798 34.856 49.7978 34.856 49.7975 34.856C49.7973 34.856 49.797 34.856 49.7968 34.856C49.7965 34.856 49.7963 34.856 49.796 34.856C49.7958 34.856 49.7955 34.856 49.7953 34.856C49.795 34.856 49.7948 34.856 49.7945 34.856C49.7943 34.856 49.794 34.856 49.7938 34.856C49.7935 34.856 49.7933 34.856 49.793 34.856C49.7928 34.856 49.7925 34.856 49.7923 34.856C49.7921 34.856 49.7918 34.856 49.7916 34.856C49.7913 34.856 49.7911 34.856 49.7908 34.856C49.7906 34.856 49.7903 34.856 49.7901 34.856C49.7898 34.856 49.7896 34.856 49.7893 34.856C49.7891 34.856 49.7888 34.856 49.7886 34.856C49.7883 34.856 49.7881 34.856 49.7878 34.856C49.7876 34.856 49.7873 34.856 49.7871 34.856C49.7868 34.856 49.7866 34.856 49.7863 34.856C49.7861 34.856 49.7858 34.856 49.7856 34.856C49.7853 34.856 49.7851 34.856 49.7849 34.856C49.7846 34.856 49.7844 34.856 49.7841 34.856C49.7839 34.856 49.7836 34.856 49.7834 34.856C49.7831 34.856 49.7829 34.856 49.7826 34.856C49.7824 34.856 49.7821 34.856 49.7819 34.856C49.7816 34.856 49.7814 34.856 49.7811 34.856C49.7809 34.856 49.7806 34.856 49.7804 34.856C49.7801 34.856 49.7799 34.856 49.7796 34.856C49.7794 34.856 49.7791 34.856 49.7789 34.856C49.7786 34.856 49.7784 34.856 49.7781 34.856C49.7779 34.856 49.7776 34.856 49.7774 34.856C49.7771 34.856 49.7769 34.856 49.7766 34.856C49.7764 34.856 49.7761 34.856 49.7759 34.856C49.7756 34.856 49.7754 34.856 49.7751 34.856C49.7749 34.856 49.7746 34.856 49.7744 34.856V36.856ZM50.3225 36.8366C50.4292 36.8152 50.5358 36.7939 50.6425 36.7726L50.2503 34.8114C50.1436 34.8328 50.0369 34.8541 49.9303 34.8754L50.3225 36.8366ZM50.8178 36.7205C50.9169 36.6808 50.9816 36.657 51.0186 36.6447L50.3861 34.7473C50.2952 34.7776 50.1891 34.8179 50.075 34.8635L50.8178 36.7205ZM50.9449 36.6661C51.085 36.6311 51.2251 36.5832 51.3618 36.5285L50.619 34.6715C50.5424 34.7022 50.4904 34.7182 50.4598 34.7259L50.9449 36.6661ZM51.5049 36.4575C51.618 36.3896 51.7184 36.3272 51.8011 36.272L50.6917 34.608C50.6464 34.6382 50.5761 34.6824 50.4759 34.7425L51.5049 36.4575ZM51.8011 36.2721C51.8464 36.2418 51.9166 36.1976 52.0169 36.1375L50.9879 34.4225C50.8748 34.4904 50.7744 34.5528 50.6917 34.6079L51.8011 36.2721ZM52.1271 36.0609C52.2359 35.9738 52.3484 35.8802 52.4335 35.7951L51.0193 34.3809C51.0237 34.3765 51.0159 34.3845 50.9876 34.4087C50.9614 34.4312 50.9253 34.461 50.8777 34.4991L52.1271 36.0609ZM52.2811 35.92C52.3807 35.8536 52.4922 35.7687 52.6071 35.6769L51.3577 34.1151C51.2592 34.1939 51.2 34.237 51.1717 34.256L52.2811 35.92ZM52.6226 35.6642C52.6808 35.6157 52.7277 35.5778 52.7643 35.5494C52.7825 35.5352 52.7968 35.5244 52.8077 35.5164C52.8131 35.5125 52.8173 35.5095 52.8204 35.5073C52.8219 35.5062 52.823 35.5054 52.8238 35.5049C52.8242 35.5046 52.8245 35.5044 52.8248 35.5043C52.8249 35.5042 52.8249 35.5041 52.825 35.5041C52.825 35.5041 52.825 35.5041 52.8251 35.5041C52.8251 35.5041 52.8251 35.5041 52.8251 35.5041L51.7157 33.8399C51.6042 33.9142 51.4736 34.0182 51.3422 34.1278L52.6226 35.6642ZM53.2704 34.672V19.632H51.2704V34.672H53.2704ZM52.8251 18.7999L51.0971 17.6479L49.9877 19.312L51.7157 20.4641L52.8251 18.7999ZM51.5424 18.48V14.8H49.5424V18.48H51.5424ZM50.5424 15.8H62.7344V13.8H50.5424V15.8ZM61.7344 14.8V42H63.7344V14.8H61.7344ZM62.7344 41H53.8704V43H62.7344V41ZM54.8443 41.773L53.8523 37.517L51.9045 37.971L52.8965 42.227L54.8443 41.773ZM68.5766 40.08L67.7398 40.6275L67.7446 40.6347L68.5766 40.08ZM66.8806 20.432H67.8806V19.432H66.8806V20.432ZM64.6726 20.432H63.6726V21.432H64.6726V20.432ZM64.6726 15.984L64.3734 15.0298L63.6726 15.2496V15.984H64.6726ZM68.4486 14.8L68.7478 15.7542L69.1822 15.618L69.3647 15.201L68.4486 14.8ZM71.7126 7.344V6.344H71.0588L70.7966 6.94297L71.7126 7.344ZM77.3446 7.344H78.3446V6.344H77.3446V7.344ZM77.3446 14.8H76.3446V15.8H77.3446V14.8ZM82.5926 14.8H83.5926V13.8H82.5926V14.8ZM82.5926 20.432V21.432H83.5926V20.432H82.5926ZM77.2486 20.432V19.432H76.2486V20.432H77.2486ZM77.9846 35.728L77.2356 36.3906L77.9846 35.728ZM81.4726 36.4L81.7548 37.3594V37.3594L81.4726 36.4ZM82.3686 35.952H83.3686V33.8418L81.7354 35.178L82.3686 35.952ZM82.3686 40.304L83.0757 41.0111L83.3686 40.7182V40.304H82.3686ZM81.1206 41.264L81.6245 42.1278L81.6377 42.1201L81.6506 42.112L81.1206 41.264ZM78.5606 42.192L78.3019 41.226L78.2975 41.2272L78.5606 42.192ZM74.6246 41.672C71.9378 41.672 70.3086 40.8752 69.4087 39.5253L67.7446 40.6347C69.1487 42.7408 71.5515 43.672 74.6246 43.672V41.672ZM69.4134 39.5325C68.4518 38.0629 67.8806 35.3945 67.8806 31.312H65.8806C65.8806 35.4641 66.4401 38.6411 67.7398 40.6275L69.4134 39.5325ZM67.8806 31.312V20.432H65.8806V31.312H67.8806ZM66.8806 19.432H64.6726V21.432H66.8806V19.432ZM65.6726 20.432V15.984H63.6726V20.432H65.6726ZM64.9718 16.9382L68.7478 15.7542L68.1494 13.8458L64.3734 15.0298L64.9718 16.9382ZM69.3647 15.201L72.6287 7.74503L70.7966 6.94297L67.5326 14.399L69.3647 15.201ZM71.7126 8.344H77.3446V6.344H71.7126V8.344ZM76.3446 7.344V14.8H78.3446V7.344H76.3446ZM77.3446 15.8H82.5926V13.8H77.3446V15.8ZM81.5926 14.8V20.432H83.5926V14.8H81.5926ZM82.5926 19.432H77.2486V21.432H82.5926V19.432ZM76.2486 20.432V32.336H78.2486V20.432H76.2486ZM76.2486 32.336C76.2486 33.2304 76.3123 34.0167 76.4554 34.676C76.5958 35.3232 76.8304 35.9325 77.2356 36.3906L78.7336 35.0654C78.6482 34.9688 78.5148 34.7355 78.4099 34.252C78.3076 33.7807 78.2486 33.1483 78.2486 32.336H76.2486ZM77.2356 36.3906C77.9804 37.2325 79.0602 37.56 80.2566 37.56V35.56C79.4051 35.56 78.9702 35.3328 78.7336 35.0654L77.2356 36.3906ZM80.2566 37.56C80.783 37.56 81.2854 37.4974 81.7548 37.3594L81.1905 35.4406C80.9345 35.5159 80.6262 35.56 80.2566 35.56V37.56ZM81.7548 37.3594C82.2151 37.224 82.6416 37.0207 83.0019 36.726L81.7354 35.178C81.6263 35.2673 81.4555 35.3627 81.1905 35.4406L81.7548 37.3594ZM81.3686 35.952V40.304H83.3686V35.952H81.3686ZM81.6615 39.5969C81.4094 39.849 81.0583 40.1237 80.5906 40.416L81.6506 42.112C82.2069 41.7643 82.6879 41.399 83.0757 41.0111L81.6615 39.5969ZM80.6168 40.4002C80.2267 40.6278 79.4827 40.9098 78.3019 41.2261L78.8194 43.1579C80.0279 42.8342 80.9906 42.4976 81.6245 42.1278L80.6168 40.4002ZM78.2975 41.2272C77.2245 41.5199 76.0029 41.672 74.6246 41.672V43.672C76.1476 43.672 77.55 43.5041 78.8237 43.1568L78.2975 41.2272ZM95.7539 42V43H96.7539V42H95.7539ZM85.4179 42H84.4179V43H85.4179V42ZM85.4179 21.296H86.4179V20.7378L85.9428 20.4448L85.4179 21.296ZM83.4979 20.112H82.4979V20.6702L82.973 20.9632L83.4979 20.112ZM83.4979 16.496L83.2585 15.5251L82.4979 15.7126V16.496H83.4979ZM90.3779 14.8V13.8H90.2564L90.1385 13.8291L90.3779 14.8ZM92.9699 14.8L93.9625 14.679L93.8554 13.8H92.9699V14.8ZM93.8979 22.416L92.9052 22.537L94.8842 22.5811L93.8979 22.416ZM103.978 14.864L104.973 14.9591L105.049 14.167L104.294 13.9153L103.978 14.864ZM102.89 26.256L102.219 26.9975L103.696 28.3339L103.885 26.3511L102.89 26.256ZM95.7539 27.376L94.8729 26.9029L94.7539 27.1245V27.376H95.7539ZM95.7539 41H85.4179V43H95.7539V41ZM86.4179 42V21.296H84.4179V42H86.4179ZM85.9428 20.4448L84.0228 19.2608L82.973 20.9632L84.893 22.1472L85.9428 20.4448ZM84.4979 20.112V16.496H82.4979V20.112H84.4979ZM83.7372 17.4669L90.6172 15.7709L90.1385 13.8291L83.2585 15.5251L83.7372 17.4669ZM90.3779 15.8H92.9699V13.8H90.3779V15.8ZM91.9772 14.921L92.9052 22.537L94.8905 22.295L93.9625 14.679L91.9772 14.921ZM94.8842 22.5811C95.2988 20.1034 96.1496 18.3761 97.3395 17.2677C98.516 16.1718 100.136 15.576 102.314 15.576V13.576C99.7553 13.576 97.6051 14.2869 95.9762 15.8043C94.3608 17.3092 93.3716 19.502 92.9116 22.2509L94.8842 22.5811ZM102.314 15.576C102.726 15.576 103.174 15.65 103.662 15.8127L104.294 13.9153C103.63 13.694 102.968 13.576 102.314 13.576V15.576ZM102.982 14.7689L101.894 26.1609L103.885 26.3511L104.973 14.9591L102.982 14.7689ZM103.561 25.5145C103.144 25.1375 102.583 24.9369 102.02 24.8207C101.438 24.7005 100.74 24.648 99.9459 24.648V26.648C100.666 26.648 101.216 26.6968 101.616 26.7793C102.034 26.8657 102.188 26.9692 102.219 26.9975L103.561 25.5145ZM99.9459 24.648C97.6591 24.648 95.7607 25.2496 94.8729 26.9029L96.6349 27.8491C96.9843 27.1984 97.8807 26.648 99.9459 26.648V24.648ZM94.7539 27.376V42H96.7539V27.376H94.7539ZM106.512 42H105.512V43H106.512V42ZM106.512 21.296H107.512V20.7378L107.037 20.4448L106.512 21.296ZM104.592 20.112H103.592V20.6702L104.067 20.9632L104.592 20.112ZM104.592 16.688L104.327 15.7237L103.592 15.9254V16.688H104.592ZM111.472 14.8V13.8H111.337L111.207 13.8357L111.472 14.8ZM116.816 14.8H117.816V13.8H116.816V14.8ZM116.816 42V43H117.816V42H116.816ZM111.152 11.856L110.442 12.561L110.736 12.856H111.152V11.856ZM105.904 6.576H104.904V6.98844L105.194 7.28096L105.904 6.576ZM105.904 5.456L105.197 4.74889L104.904 5.04179V5.456H105.904ZM111.152 0.208V-0.792H110.737L110.445 -0.499107L111.152 0.208ZM112.368 0.208L113.06 -0.513725L112.77 -0.792H112.368V0.208ZM117.84 5.456H118.84V5.02949L118.532 4.73427L117.84 5.456ZM117.84 6.576L118.534 7.29562L118.84 7.00071V6.576H117.84ZM112.368 11.856V12.856H112.771L113.062 12.5756L112.368 11.856ZM107.512 42V21.296H105.512V42H107.512ZM107.037 20.4448L105.117 19.2608L104.067 20.9632L105.987 22.1472L107.037 20.4448ZM105.592 20.112V16.688H103.592V20.112H105.592ZM104.856 17.6523L111.736 15.7643L111.207 13.8357L104.327 15.7237L104.856 17.6523ZM111.472 15.8H116.816V13.8H111.472V15.8ZM115.816 14.8V42H117.816V14.8H115.816ZM116.816 41H106.512V43H116.816V41ZM111.861 11.151L106.613 5.87105L105.194 7.28096L110.442 12.561L111.861 11.151ZM106.904 6.576V5.456H104.904V6.576H106.904ZM106.611 6.16311L111.859 0.915106L110.445 -0.499107L105.197 4.74889L106.611 6.16311ZM111.152 1.208H112.368V-0.792H111.152V1.208ZM111.675 0.929724L117.147 6.17772L118.532 4.73427L113.06 -0.513725L111.675 0.929724ZM116.84 5.456V6.576H118.84V5.456H116.84ZM117.145 5.85638L111.673 11.1364L113.062 12.5756L118.534 7.29562L117.145 5.85638ZM112.368 10.856H111.152V12.856H112.368V10.856ZM137.23 33.744L136.314 33.3442L136.31 33.3524L137.23 33.744ZM137.326 12.784L138.241 12.3798L137.326 12.784ZM131.47 10.032V9.032H130.47V10.032H131.47ZM131.47 36.752H130.47V37.752H131.47V36.752ZM130.926 42.096L130.979 41.0973L130.966 41.0968L130.926 42.096ZM120.878 42H119.878V43H120.878V42ZM120.878 4.496V3.496H119.878V4.496H120.878ZM125.966 4.496V5.496H125.974L125.981 5.49589L125.966 4.496ZM146.286 8.784L145.494 9.39372L145.496 9.39718L146.286 8.784ZM149.422 27.792L148.434 27.639L148.432 27.6506L149.422 27.792ZM147.95 33.2L148.877 33.5752L148.879 33.5714L147.95 33.2ZM145.198 37.84L144.437 37.1913L145.198 37.84ZM140.782 41.008L141.187 41.9227L140.782 41.008ZM133.518 37.752C134.554 37.752 135.492 37.4254 136.292 36.7769C137.076 36.142 137.682 35.2358 138.151 34.1356L136.31 33.3524C135.925 34.2575 135.487 34.8554 135.033 35.2231C134.596 35.5773 134.104 35.752 133.518 35.752V37.752ZM138.147 34.1438C139.11 31.9363 139.542 28.4507 139.542 23.824H137.542C137.542 28.4133 137.1 31.541 136.314 33.3442L138.147 34.1438ZM139.542 23.824V20.592H137.542V23.824H139.542ZM139.542 20.592C139.542 17.1643 139.134 14.4001 138.241 12.3798L136.412 13.1882C137.14 14.8373 137.542 17.2784 137.542 20.592H139.542ZM138.241 12.3798C137.336 10.3313 135.9 9.032 133.87 9.032V11.032C134.828 11.032 135.696 11.5674 136.412 13.1882L138.241 12.3798ZM133.87 9.032H131.47V11.032H133.87V9.032ZM130.47 10.032V36.752H132.47V10.032H130.47ZM131.47 37.752H133.518V35.752H131.47V37.752ZM134.51 41.224C133.77 41.224 132.598 41.1826 130.979 41.0974L130.874 43.0946C132.498 43.1801 133.715 43.224 134.51 43.224V41.224ZM130.966 41.0968C129.352 41.0322 127.686 41 125.966 41V43C127.661 43 129.301 43.0318 130.886 43.0952L130.966 41.0968ZM125.966 41H120.878V43H125.966V41ZM121.878 42V4.496H119.878V42H121.878ZM120.878 5.496H125.966V3.496H120.878V5.496ZM125.981 5.49589C127.424 5.47435 128.994 5.42055 130.689 5.33472L130.588 3.33728C128.912 3.42212 127.367 3.47498 125.951 3.49611L125.981 5.49589ZM130.689 5.33472C132.368 5.24971 133.671 5.208 134.606 5.208V3.208C133.622 3.208 132.279 3.25163 130.588 3.33728L130.689 5.33472ZM134.606 5.208C139.872 5.208 143.406 6.67968 145.494 9.39371L147.079 8.17429C144.473 4.78699 140.221 3.208 134.606 3.208V5.208ZM145.496 9.39718C147.674 12.2026 148.838 16.3963 148.838 22.128H150.838C150.838 16.1691 149.635 11.4667 147.076 8.17083L145.496 9.39718ZM148.838 22.128C148.838 24.0655 148.703 25.9021 148.434 27.6391L150.411 27.9449C150.696 26.0979 150.838 24.1585 150.838 22.128H148.838ZM148.432 27.6506C148.189 29.3578 147.72 31.0834 147.022 32.8286L148.879 33.5714C149.631 31.6899 150.144 29.8102 150.412 27.9334L148.432 27.6506ZM147.023 32.8248C146.333 34.5301 145.469 35.9815 144.437 37.1913L145.959 38.4887C147.147 37.0958 148.117 35.4539 148.877 33.5752L147.023 32.8248ZM144.437 37.1913C143.441 38.3601 142.099 39.3329 140.378 40.0933L141.187 41.9227C143.135 41.0617 144.737 39.9226 145.959 38.4887L144.437 37.1913ZM140.378 40.0933C138.691 40.839 136.741 41.224 134.51 41.224V43.224C136.973 43.224 139.205 42.7984 141.187 41.9227L140.378 40.0933ZM167.567 25.456V26.456H168.567V25.456H167.567ZM164.047 18.352L164.513 19.2369L164.531 19.2275L164.548 19.2174L164.047 18.352ZM163.151 19.408L164.077 19.7866L164.08 19.7795L164.082 19.7724L163.151 19.408ZM162.767 20.88L161.775 20.756L161.773 20.7746L161.771 20.7934L162.767 20.88ZM162.703 25.456H161.703V26.456H162.703V25.456ZM158.767 41.584L158.384 42.5078L158.388 42.5094L158.767 41.584ZM154.607 38.544L153.815 39.1544L153.821 39.1624L154.607 38.544ZM152.399 34.16L151.438 34.4347L151.439 34.4381L152.399 34.16ZM155.343 17.84L154.633 17.136L155.343 17.84ZM174.575 17.136L173.837 17.8107L173.841 17.8146L174.575 17.136ZM177.295 30.192V31.192H178.295V30.192H177.295ZM162.671 30.192V29.192H161.671V30.192H162.671ZM163.055 33.904L162.102 34.2051L162.105 34.2165L162.109 34.2277L163.055 33.904ZM164.239 35.696L164.839 34.896L164.239 35.696ZM165.807 36.464L165.574 37.4364L165.807 36.464ZM170.159 36.368L169.945 35.3912L169.94 35.3924L170.159 36.368ZM172.783 35.472L172.371 34.5609L172.363 34.5647L172.783 35.472ZM175.023 34.032L175.887 33.5276L175.257 32.4501L174.343 33.2992L175.023 34.032ZM176.911 37.264L177.762 37.7889L178.077 37.2779L177.775 36.7596L176.911 37.264ZM173.423 40.496L173.914 41.3673L173.918 41.365L173.423 40.496ZM168.567 25.456C168.567 22.744 168.431 20.7167 168.122 19.4578L166.18 19.9342C166.426 20.9366 166.567 22.7494 166.567 25.456H168.567ZM168.122 19.4578C167.963 18.8088 167.711 18.2065 167.3 17.7527C166.859 17.2659 166.278 17 165.615 17V19C165.699 19 165.747 19.0168 165.818 19.0953C165.919 19.2069 166.062 19.4525 166.18 19.9342L168.122 19.4578ZM165.615 17C164.861 17 164.149 17.1372 163.546 17.4866L164.548 19.2174C164.755 19.0974 165.089 19 165.615 19V17ZM163.581 17.4671C162.932 17.809 162.485 18.3648 162.22 19.0436L164.082 19.7724C164.201 19.4698 164.352 19.3217 164.513 19.2369L163.581 17.4671ZM162.226 19.0294C162 19.5817 161.85 20.1581 161.775 20.756L163.759 21.004C163.813 20.5779 163.919 20.173 164.077 19.7866L162.226 19.0294ZM161.771 20.7934C161.725 21.3241 161.703 21.9851 161.703 22.768H163.703C163.703 22.0149 163.724 21.4173 163.763 20.9666L161.771 20.7934ZM161.703 22.768V25.456H163.703V22.768H161.703ZM162.703 26.456H167.567V24.456H162.703V26.456ZM165.007 41.672C162.717 41.672 160.771 41.3241 159.146 40.6586L158.388 42.5094C160.305 43.2946 162.519 43.672 165.007 43.672V41.672ZM159.15 40.6603C157.536 39.991 156.297 39.074 155.393 37.9256L153.821 39.1624C154.966 40.6166 156.5 41.7264 158.384 42.5077L159.15 40.6603ZM155.399 37.9337C154.475 36.7343 153.795 35.3863 153.36 33.8819L151.439 34.4381C151.942 36.1764 152.734 37.751 153.815 39.1543L155.399 37.9337ZM153.361 33.8853C152.921 32.3459 152.695 30.6161 152.695 28.688H150.695C150.695 30.7706 150.939 32.6888 151.438 34.4347L153.361 33.8853ZM152.695 28.688C152.695 24.0701 153.869 20.7478 156.053 18.544L154.633 17.136C151.954 19.8388 150.695 23.7485 150.695 28.688H152.695ZM156.053 18.544C158.251 16.3273 161.37 15.16 165.551 15.16V13.16C160.986 13.16 157.299 14.446 154.633 17.136L156.053 18.544ZM165.551 15.16C169.629 15.16 172.298 16.1263 173.837 17.8106L175.313 16.4614C173.226 14.1777 169.879 13.16 165.551 13.16V15.16ZM173.841 17.8146C175.403 19.5055 176.295 22.3673 176.295 26.64H178.295C178.295 22.166 177.374 18.6918 175.31 16.4574L173.841 17.8146ZM176.295 26.64V30.192H178.295V26.64H176.295ZM177.295 29.192H162.671V31.192H177.295V29.192ZM161.671 30.192V30.8H163.671V30.192H161.671ZM161.671 30.8C161.671 32.1167 161.804 33.2624 162.102 34.2051L164.009 33.6029C163.794 32.9243 163.671 32.0007 163.671 30.8H161.671ZM162.109 34.2277C162.43 35.1652 162.92 35.957 163.639 36.496L164.839 34.896C164.534 34.667 164.235 34.2642 164.001 33.5803L162.109 34.2277ZM163.639 36.496C164.242 36.9484 164.887 37.2717 165.574 37.4364L166.04 35.4916C165.66 35.4003 165.26 35.2116 164.839 34.896L163.639 36.496ZM165.574 37.4364C166.207 37.5884 166.941 37.656 167.759 37.656V35.656C167.041 35.656 166.474 35.5956 166.04 35.4916L165.574 37.4364ZM167.759 37.656C168.591 37.656 169.465 37.5491 170.379 37.3436L169.94 35.3924C169.146 35.5709 168.421 35.656 167.759 35.656V37.656ZM170.374 37.3447C171.324 37.136 172.268 36.8129 173.204 36.3793L172.363 34.5647C171.549 34.9418 170.743 35.216 169.945 35.3913L170.374 37.3447ZM173.195 36.3831C174.17 35.9421 175.013 35.4064 175.704 34.7648L174.343 33.2992C173.839 33.7669 173.188 34.1912 172.371 34.5609L173.195 36.3831ZM174.16 34.5364L176.048 37.7684L177.775 36.7596L175.887 33.5276L174.16 34.5364ZM176.06 36.7391C175.373 37.8532 174.344 38.8207 172.928 39.627L173.918 41.365C175.574 40.4219 176.871 39.2348 177.762 37.7889L176.06 36.7391ZM172.932 39.6248C171.488 40.4382 170.122 40.972 168.832 41.2458L169.247 43.2022C170.772 42.8787 172.329 42.2604 173.914 41.3672L172.932 39.6248ZM168.832 41.2458C167.484 41.5317 166.209 41.672 165.007 41.672V43.672C166.365 43.672 167.779 43.5136 169.247 43.2022L168.832 41.2458ZM180.41 42H179.41V43H180.41V42ZM180.41 5.808H181.41V5.24181L180.924 4.95051L180.41 5.808ZM178.49 4.656H177.49V5.22219L177.975 5.51349L178.49 4.656ZM178.49 1.68L178.336 0.691916L177.49 0.823706V1.68H178.49ZM188.762 0.0799999V-0.92H188.684L188.608 -0.908085L188.762 0.0799999ZM190.842 0.0799999H191.842V-0.92H190.842V0.0799999ZM190.842 42V43H191.842V42H190.842ZM181.41 42V5.808H179.41V42H181.41ZM180.924 4.95051L179.004 3.79851L177.975 5.51349L179.895 6.66549L180.924 4.95051ZM179.49 4.656V1.68H177.49V4.656H179.49ZM178.644 2.66809L188.916 1.06808L188.608 -0.908085L178.336 0.691916L178.644 2.66809ZM188.762 1.08H190.842V-0.92H188.762V1.08ZM189.842 0.0799999V42H191.842V0.0799999H189.842ZM190.842 41H180.41V43H190.842V41ZM195.105 42H194.105V43H195.105V42ZM195.105 21.296H196.105V20.7378L195.63 20.4448L195.105 21.296ZM193.185 20.112H192.185V20.6702L192.66 20.9632L193.185 20.112ZM193.185 16.688L192.921 15.7237L192.185 15.9254V16.688H193.185ZM200.065 14.8V13.8H199.931L199.801 13.8357L200.065 14.8ZM205.409 14.8H206.409V13.8H205.409V14.8ZM205.409 42V43H206.409V42H205.409ZM199.745 11.856L199.036 12.561L199.329 12.856H199.745V11.856ZM194.497 6.576H193.497V6.98844L193.788 7.28096L194.497 6.576ZM194.497 5.456L193.79 4.74889L193.497 5.04179V5.456H194.497ZM199.745 0.208V-0.792H199.331L199.038 -0.499107L199.745 0.208ZM200.961 0.208L201.654 -0.513725L201.363 -0.792H200.961V0.208ZM206.433 5.456H207.433V5.02949L207.126 4.73427L206.433 5.456ZM206.433 6.576L207.128 7.29562L207.433 7.00071V6.576H206.433ZM200.961 11.856V12.856H201.365L201.656 12.5756L200.961 11.856ZM196.105 42V21.296H194.105V42H196.105ZM195.63 20.4448L193.71 19.2608L192.66 20.9632L194.58 22.1472L195.63 20.4448ZM194.185 20.112V16.688H192.185V20.112H194.185ZM193.45 17.6523L200.33 15.7643L199.801 13.8357L192.921 15.7237L193.45 17.6523ZM200.065 15.8H205.409V13.8H200.065V15.8ZM204.409 14.8V42H206.409V14.8H204.409ZM205.409 41H195.105V43H205.409V41ZM200.455 11.151L195.207 5.87105L193.788 7.28096L199.036 12.561L200.455 11.151ZM195.497 6.576V5.456H193.497V6.576H195.497ZM195.204 6.16311L200.452 0.915106L199.038 -0.499107L193.79 4.74889L195.204 6.16311ZM199.745 1.208H200.961V-0.792H199.745V1.208ZM200.269 0.929724L205.741 6.17772L207.126 4.73427L201.654 -0.513725L200.269 0.929724ZM205.433 5.456V6.576H207.433V5.456H205.433ZM205.739 5.85638L200.267 11.1364L201.656 12.5756L207.128 7.29562L205.739 5.85638ZM200.961 10.856H199.745V12.856H200.961V10.856ZM216.032 42L215.087 42.3269L215.32 43H216.032V42ZM206.624 14.8V13.8H205.22L205.679 15.1269L206.624 14.8ZM218.112 14.8L219.091 14.5959L218.925 13.8H218.112V14.8ZM220.16 24.624L221.145 24.453L221.143 24.4364L221.139 24.4199L220.16 24.624ZM221.632 33.104L220.647 33.275L222.614 33.293L221.632 33.104ZM223.264 24.624L222.292 24.3897L222.287 24.4122L222.282 24.435L223.264 24.624ZM225.632 14.8V13.8H224.845L224.66 14.5657L225.632 14.8ZM234.272 14.8L235.23 15.0873L235.616 13.8H234.272V14.8ZM226.112 42V43H226.856L227.07 42.2873L226.112 42ZM216.977 41.6731L207.569 14.4731L205.679 15.1269L215.087 42.3269L216.977 41.6731ZM206.624 15.8H218.112V13.8H206.624V15.8ZM217.133 15.0041L219.181 24.8281L221.139 24.4199L219.091 14.5959L217.133 15.0041ZM219.175 24.795L220.647 33.275L222.617 32.933L221.145 24.453L219.175 24.795ZM222.614 33.293L224.246 24.813L222.282 24.435L220.65 32.915L222.614 33.293ZM224.236 24.8583L226.604 15.0343L224.66 14.5657L222.292 24.3897L224.236 24.8583ZM225.632 15.8H234.272V13.8H225.632V15.8ZM233.314 14.5127L225.154 41.7127L227.07 42.2873L235.23 15.0873L233.314 14.5127ZM226.112 41H216.032V43H226.112V41ZM250.442 25.456V26.456H251.442V25.456H250.442ZM246.922 18.352L247.388 19.2369L247.406 19.2275L247.423 19.2174L246.922 18.352ZM246.026 19.408L246.952 19.7866L246.955 19.7795L246.957 19.7724L246.026 19.408ZM245.642 20.88L244.65 20.756L244.648 20.7746L244.646 20.7934L245.642 20.88ZM245.578 25.456H244.578V26.456H245.578V25.456ZM241.642 41.584L241.259 42.5078L241.263 42.5094L241.642 41.584ZM237.482 38.544L236.69 39.1544L236.696 39.1624L237.482 38.544ZM235.274 34.16L234.313 34.4347L234.314 34.4381L235.274 34.16ZM238.218 17.84L237.508 17.136L238.218 17.84ZM257.45 17.136L256.712 17.8107L256.716 17.8146L257.45 17.136ZM260.17 30.192V31.192H261.17V30.192H260.17ZM245.546 30.192V29.192H244.546V30.192H245.546ZM245.93 33.904L244.977 34.2051L244.98 34.2165L244.984 34.2277L245.93 33.904ZM247.114 35.696L247.714 34.896L247.114 35.696ZM248.682 36.464L248.449 37.4364L248.682 36.464ZM253.034 36.368L252.82 35.3912L252.815 35.3924L253.034 36.368ZM255.658 35.472L255.246 34.5609L255.238 34.5647L255.658 35.472ZM257.898 34.032L258.762 33.5276L258.132 32.4501L257.218 33.2992L257.898 34.032ZM259.786 37.264L260.637 37.7889L260.952 37.2779L260.65 36.7596L259.786 37.264ZM256.298 40.496L256.789 41.3673L256.793 41.365L256.298 40.496ZM251.442 25.456C251.442 22.744 251.306 20.7167 250.997 19.4578L249.055 19.9342C249.301 20.9366 249.442 22.7494 249.442 25.456H251.442ZM250.997 19.4578C250.838 18.8088 250.586 18.2065 250.175 17.7527C249.734 17.2659 249.153 17 248.49 17V19C248.574 19 248.622 19.0168 248.693 19.0953C248.794 19.2069 248.937 19.4525 249.055 19.9342L250.997 19.4578ZM248.49 17C247.736 17 247.025 17.1372 246.421 17.4866L247.423 19.2174C247.63 19.0974 247.964 19 248.49 19V17ZM246.456 17.4671C245.807 17.809 245.36 18.3648 245.095 19.0436L246.957 19.7724C247.076 19.4698 247.227 19.3217 247.388 19.2369L246.456 17.4671ZM245.101 19.0294C244.875 19.5817 244.725 20.1581 244.65 20.756L246.634 21.004C246.688 20.5779 246.794 20.173 246.952 19.7866L245.101 19.0294ZM244.646 20.7934C244.6 21.3241 244.578 21.9851 244.578 22.768H246.578C246.578 22.0149 246.599 21.4173 246.638 20.9666L244.646 20.7934ZM244.578 22.768V25.456H246.578V22.768H244.578ZM245.578 26.456H250.442V24.456H245.578V26.456ZM247.882 41.672C245.592 41.672 243.646 41.3241 242.021 40.6586L241.263 42.5094C243.18 43.2946 245.394 43.672 247.882 43.672V41.672ZM242.025 40.6603C240.411 39.991 239.172 39.074 238.268 37.9256L236.696 39.1624C237.841 40.6166 239.375 41.7264 241.259 42.5077L242.025 40.6603ZM238.274 37.9337C237.35 36.7343 236.67 35.3863 236.235 33.8819L234.314 34.4381C234.817 36.1764 235.609 37.751 236.69 39.1543L238.274 37.9337ZM236.236 33.8853C235.796 32.3459 235.57 30.6161 235.57 28.688H233.57C233.57 30.7706 233.814 32.6888 234.313 34.4347L236.236 33.8853ZM235.57 28.688C235.57 24.0701 236.744 20.7478 238.928 18.544L237.508 17.136C234.829 19.8388 233.57 23.7485 233.57 28.688H235.57ZM238.928 18.544C241.126 16.3273 244.245 15.16 248.426 15.16V13.16C243.861 13.16 240.174 14.446 237.508 17.136L238.928 18.544ZM248.426 15.16C252.504 15.16 255.173 16.1263 256.712 17.8106L258.188 16.4614C256.101 14.1777 252.754 13.16 248.426 13.16V15.16ZM256.716 17.8146C258.278 19.5055 259.17 22.3673 259.17 26.64H261.17C261.17 22.166 260.249 18.6918 258.185 16.4574L256.716 17.8146ZM259.17 26.64V30.192H261.17V26.64H259.17ZM260.17 29.192H245.546V31.192H260.17V29.192ZM244.546 30.192V30.8H246.546V30.192H244.546ZM244.546 30.8C244.546 32.1167 244.679 33.2624 244.977 34.2051L246.884 33.6029C246.669 32.9243 246.546 32.0007 246.546 30.8H244.546ZM244.984 34.2277C245.305 35.1652 245.795 35.957 246.514 36.496L247.714 34.896C247.409 34.667 247.11 34.2642 246.876 33.5803L244.984 34.2277ZM246.514 36.496C247.117 36.9484 247.762 37.2717 248.449 37.4364L248.915 35.4916C248.535 35.4003 248.135 35.2116 247.714 34.896L246.514 36.496ZM248.449 37.4364C249.082 37.5884 249.816 37.656 250.634 37.656V35.656C249.916 35.656 249.349 35.5956 248.915 35.4916L248.449 37.4364ZM250.634 37.656C251.466 37.656 252.34 37.5491 253.254 37.3436L252.815 35.3924C252.021 35.5709 251.296 35.656 250.634 35.656V37.656ZM253.249 37.3447C254.199 37.136 255.143 36.8129 256.079 36.3793L255.238 34.5647C254.424 34.9418 253.618 35.216 252.82 35.3913L253.249 37.3447ZM256.07 36.3831C257.045 35.9421 257.888 35.4064 258.579 34.7648L257.218 33.2992C256.714 33.7669 256.063 34.1912 255.246 34.5609L256.07 36.3831ZM257.035 34.5364L258.923 37.7684L260.65 36.7596L258.762 33.5276L257.035 34.5364ZM258.935 36.7391C258.248 37.8532 257.219 38.8207 255.803 39.627L256.793 41.365C258.449 40.4219 259.746 39.2348 260.637 37.7889L258.935 36.7391ZM255.807 39.6248C254.363 40.4382 252.997 40.972 251.707 41.2458L252.122 43.2022C253.647 42.8787 255.204 42.2604 256.789 41.3672L255.807 39.6248ZM251.707 41.2458C250.359 41.5317 249.084 41.672 247.882 41.672V43.672C249.24 43.672 250.654 43.5136 252.122 43.2022L251.707 41.2458ZM273.973 42V43H274.973V42H273.973ZM263.637 42H262.637V43H263.637V42ZM263.637 21.296H264.637V20.7378L264.161 20.4448L263.637 21.296ZM261.717 20.112H260.717V20.6702L261.192 20.9632L261.717 20.112ZM261.717 16.496L261.477 15.5251L260.717 15.7126V16.496H261.717ZM268.597 14.8V13.8H268.475L268.357 13.8291L268.597 14.8ZM271.189 14.8L272.181 14.679L272.074 13.8H271.189V14.8ZM272.117 22.416L271.124 22.537L273.103 22.5811L272.117 22.416ZM282.197 14.864L283.192 14.9591L283.268 14.167L282.513 13.9153L282.197 14.864ZM281.109 26.256L280.438 26.9975L281.915 28.3339L282.104 26.3511L281.109 26.256ZM273.973 27.376L273.092 26.9029L272.973 27.1245V27.376H273.973ZM273.973 41H263.637V43H273.973V41ZM264.637 42V21.296H262.637V42H264.637ZM264.161 20.4448L262.242 19.2608L261.192 20.9632L263.112 22.1472L264.161 20.4448ZM262.717 20.112V16.496H260.717V20.112H262.717ZM261.956 17.4669L268.836 15.7709L268.357 13.8291L261.477 15.5251L261.956 17.4669ZM268.597 15.8H271.189V13.8H268.597V15.8ZM270.196 14.921L271.124 22.537L273.109 22.295L272.181 14.679L270.196 14.921ZM273.103 22.5811C273.518 20.1034 274.368 18.3761 275.558 17.2677C276.735 16.1718 278.355 15.576 280.533 15.576V13.576C277.974 13.576 275.824 14.2869 274.195 15.8043C272.58 17.3092 271.59 19.502 271.13 22.2509L273.103 22.5811ZM280.533 15.576C280.945 15.576 281.392 15.65 281.88 15.8127L282.513 13.9153C281.849 13.694 281.187 13.576 280.533 13.576V15.576ZM281.201 14.7689L280.113 26.1609L282.104 26.3511L283.192 14.9591L281.201 14.7689ZM281.78 25.5145C281.363 25.1375 280.802 24.9369 280.239 24.8207C279.657 24.7005 278.959 24.648 278.165 24.648V26.648C278.885 26.648 279.435 26.6968 279.834 26.7793C280.253 26.8657 280.406 26.9692 280.438 26.9975L281.78 25.5145ZM278.165 24.648C275.878 24.648 273.979 25.2496 273.092 26.9029L274.854 27.8491C275.203 27.1984 276.099 26.648 278.165 26.648V24.648ZM272.973 27.376V42H274.973V27.376H272.973ZM287.386 49.456L286.485 49.0222L286.208 49.5982L286.614 50.0917L287.386 49.456ZM289.05 46L289.545 45.1308L288.614 44.6012L288.149 45.5662L289.05 46ZM297.146 46.768L296.85 45.8129L297.146 46.768ZM298.81 45.744L298.119 45.0214L298.111 45.029L298.103 45.0369L298.81 45.744ZM299.93 43.728L298.971 43.4471L299.93 43.728ZM300.346 40.496L301.346 40.5127L301.346 40.5043V40.496H300.346ZM300.346 37.744H301.346V34.2572L299.498 37.214L300.346 37.744ZM300.026 38.256L299.178 37.726V37.726L300.026 38.256ZM299.034 39.504L298.296 38.8297L298.294 38.8313L299.034 39.504ZM297.562 40.944L298.208 41.7074L298.217 41.7003L298.225 41.693L297.562 40.944ZM295.514 42.16L295.126 41.2383L295.117 41.2421L295.514 42.16ZM286.362 40.016L285.553 40.6036L285.557 40.6082L286.362 40.016ZM284.41 19.632H285.41V19.2178L285.117 18.9249L284.41 19.632ZM283.258 18.48H282.258V18.8942L282.551 19.1871L283.258 18.48ZM283.258 14.8V13.8H282.258V14.8H283.258ZM294.906 14.8H295.906V13.8H294.906V14.8ZM295.354 35.184L294.511 35.7209L294.525 35.7435L294.541 35.7652L295.354 35.184ZM298.074 35.728L298.368 36.6838L298.401 36.6737L298.433 36.6613L298.074 35.728ZM298.874 35.312L298.35 34.4603L298.335 34.4699L298.32 34.4799L298.874 35.312ZM299.738 34.672L300.389 35.4313L300.738 35.1319V34.672H299.738ZM299.738 19.632H300.738V19.0914L300.286 18.7953L299.738 19.632ZM297.978 18.48H296.978V19.0206L297.431 19.3167L297.978 18.48ZM297.978 14.8V13.8H296.978V14.8H297.978ZM310.17 14.8H311.17V13.8H310.17V14.8ZM307.162 49.168L306.375 48.5513L307.162 49.168ZM297.85 52.008C295.751 52.008 293.788 51.7026 291.955 51.0983L291.329 52.9977C293.379 53.6734 295.555 54.008 297.85 54.008V52.008ZM291.955 51.0983C290.117 50.4923 288.892 49.7107 288.158 48.8203L286.614 50.0917C287.673 51.3773 289.285 52.3237 291.329 52.9977L291.955 51.0983ZM288.287 49.8898L289.951 46.4338L288.149 45.5662L286.485 49.0222L288.287 49.8898ZM288.556 46.8692C290.026 47.7057 292.206 48.056 294.938 48.056V46.056C292.295 46.056 290.549 45.7023 289.545 45.1308L288.556 46.8692ZM294.938 48.056C295.862 48.056 296.703 47.9526 297.443 47.7231L296.85 45.8129C296.352 45.9674 295.721 46.056 294.938 46.056V48.056ZM297.443 47.7231C298.227 47.4796 298.92 47.0481 299.517 46.4511L298.103 45.0369C297.719 45.4212 297.303 45.6724 296.85 45.8129L297.443 47.7231ZM299.502 46.4666C300.155 45.8416 300.601 44.9963 300.89 44.0089L298.971 43.4471C298.748 44.2091 298.447 44.7077 298.119 45.0214L299.502 46.4666ZM300.89 44.0089C301.179 43.0215 301.324 41.8491 301.346 40.5127L299.347 40.4793C299.326 41.7029 299.194 42.6852 298.971 43.4471L300.89 44.0089ZM301.346 40.496V37.744H299.346V40.496H301.346ZM299.498 37.214L299.178 37.726L300.874 38.786L301.194 38.274L299.498 37.214ZM299.178 37.726C299.011 37.9938 298.726 38.359 298.296 38.8297L299.773 40.1783C300.239 39.6677 300.615 39.2009 300.874 38.786L299.178 37.726ZM298.294 38.8313C297.896 39.2698 297.432 39.7245 296.9 40.195L298.225 41.693C298.802 41.1822 299.32 40.6768 299.774 40.1767L298.294 38.8313ZM296.916 40.1806C296.453 40.5723 295.862 40.9284 295.126 41.2384L295.902 43.0816C296.788 42.7089 297.562 42.2543 298.208 41.7074L296.916 40.1806ZM295.117 41.2421C294.449 41.5312 293.773 41.672 293.082 41.672V43.672C294.056 43.672 295.001 43.4715 295.911 43.0779L295.117 41.2421ZM293.082 41.672C290.072 41.672 288.207 40.8374 287.168 39.4238L285.557 40.6082C287.12 42.7359 289.736 43.672 293.082 43.672V41.672ZM287.172 39.4284C286.064 37.9038 285.41 35.1683 285.41 30.992H283.41C283.41 35.2637 284.058 38.5442 285.553 40.6036L287.172 39.4284ZM285.41 30.992V19.632H283.41V30.992H285.41ZM285.117 18.9249L283.965 17.7729L282.551 19.1871L283.703 20.3391L285.117 18.9249ZM284.258 18.48V14.8H282.258V18.48H284.258ZM283.258 15.8H294.906V13.8H283.258V15.8ZM293.906 14.8V33.008H295.906V14.8H293.906ZM293.906 33.008C293.906 34.0527 294.058 35.0101 294.511 35.7209L296.198 34.6471C296.053 34.4193 295.906 33.9259 295.906 33.008H293.906ZM294.541 35.7652C295.149 36.6172 296.206 36.856 297.242 36.856V34.856C296.401 34.856 296.2 34.6468 296.168 34.6028L294.541 35.7652ZM297.242 36.856C297.624 36.856 298 36.7971 298.368 36.6838L297.78 34.7722C297.594 34.8296 297.415 34.856 297.242 34.856V36.856ZM298.433 36.6613C298.782 36.5273 299.114 36.3541 299.429 36.1441L298.32 34.4799C298.123 34.6112 297.922 34.7154 297.715 34.7947L298.433 36.6613ZM299.398 36.1637C299.728 35.9606 300.059 35.7146 300.389 35.4313L299.088 33.9127C298.821 34.1414 298.575 34.3221 298.35 34.4603L299.398 36.1637ZM300.738 34.672V19.632H298.738V34.672H300.738ZM300.286 18.7953L298.526 17.6433L297.431 19.3167L299.191 20.4687L300.286 18.7953ZM298.978 18.48V14.8H296.978V18.48H298.978ZM297.978 15.8H310.17V13.8H297.978V15.8ZM309.17 14.8V38.256H311.17V14.8H309.17ZM309.17 38.256C309.17 42.8445 308.193 46.2311 306.375 48.5513L307.95 49.7847C310.143 46.9849 311.17 43.0969 311.17 38.256H309.17ZM306.375 48.5513C304.612 50.8016 301.843 52.008 297.85 52.008V54.008C302.263 54.008 305.702 52.6544 307.95 49.7847L306.375 48.5513Z" fill="black" mask="url(#path-1-outside-1_4_590)"/>
</svg>
